<svg xmlns="http://www.w3.org/2000/svg" xmlns:xlink="http://www.w3.org/1999/xlink" xmlns:lucid="lucid" width="1281.85" height="920"><g transform="translate(-278.14960629921245 -120)" lucid:page-tab-id="_gk2csRf-E1~"><path d="M298.15 146a6 6 0 0 1 6-6H1534a6 6 0 0 1 6 6v868a6 6 0 0 1-6 6H304.15a6 6 0 0 1-6-6z" stroke="#5e5e5e" stroke-width="3" fill="#fff"/><path d="M298.15 182.67H1540" stroke="#5e5e5e" stroke-width="3" fill="none"/><use xlink:href="#a" transform="matrix(1,0,0,1,306.14960629921245,148) translate(558.7716049382716 17.944444444444443)"/><use xlink:href="#b" transform="matrix(1,0,0,1,306.14960629921245,148) translate(598.216049382716 17.944444444444443)"/><path d="M330.87 406.33h272l68 68v339.34h-340z" stroke="#5e5e5e" stroke-width="3" fill="#fff"/><path d="M602.87 407.76v66.57h66.57" stroke="#5e5e5e" stroke-width="3" fill="#fff"/><use xlink:href="#c" transform="matrix(1,0,0,1,335.86614173228327,411.33333333333326) translate(108.38888888888889 27.552083333333336)"/><use xlink:href="#d" transform="matrix(1,0,0,1,335.86614173228327,411.33333333333326) translate(0 46.39652777777778)"/><use xlink:href="#e" transform="matrix(1,0,0,1,335.86614173228327,411.33333333333326) translate(0 63.88986111111111)"/><use xlink:href="#f" transform="matrix(1,0,0,1,335.86614173228327,411.33333333333326) translate(20.246913580246908 63.88986111111111)"/><use xlink:href="#g" transform="matrix(1,0,0,1,335.86614173228327,411.33333333333326) translate(93.7938271604938 63.88986111111111)"/><use xlink:href="#e" transform="matrix(1,0,0,1,335.86614173228327,411.33333333333326) translate(0 81.38319444444446)"/><use xlink:href="#h" transform="matrix(1,0,0,1,335.86614173228327,411.33333333333326) translate(20.246913580246908 81.38319444444446)"/><use xlink:href="#g" transform="matrix(1,0,0,1,335.86614173228327,411.33333333333326) translate(115.00246913580243 81.38319444444446)"/><use xlink:href="#e" transform="matrix(1,0,0,1,335.86614173228327,411.33333333333326) translate(0 98.8765277777778)"/><use xlink:href="#i" transform="matrix(1,0,0,1,335.86614173228327,411.33333333333326) translate(20.246913580246908 98.8765277777778)"/><use xlink:href="#j" transform="matrix(1,0,0,1,335.86614173228327,411.33333333333326) translate(86.65679012345676 98.8765277777778)"/><use xlink:href="#k" transform="matrix(1,0,0,1,335.86614173228327,411.33333333333326) translate(0 116.36986111111113)"/><use xlink:href="#l" transform="matrix(1,0,0,1,335.86614173228327,411.33333333333326) translate(40.493827160493815 116.36986111111113)"/><use xlink:href="#m" transform="matrix(1,0,0,1,335.86614173228327,411.33333333333326) translate(0 133.86319444444447)"/><use xlink:href="#n" transform="matrix(1,0,0,1,335.86614173228327,411.33333333333326) translate(60.740740740740726 133.86319444444447)"/><use xlink:href="#o" transform="matrix(1,0,0,1,335.86614173228327,411.33333333333326) translate(171.795061728395 133.86319444444447)"/><use xlink:href="#m" transform="matrix(1,0,0,1,335.86614173228327,411.33333333333326) translate(0 151.3565277777778)"/><use xlink:href="#p" transform="matrix(1,0,0,1,335.86614173228327,411.33333333333326) translate(60.740740740740726 151.3565277777778)"/><use xlink:href="#o" transform="matrix(1,0,0,1,335.86614173228327,411.33333333333326) translate(161.51975308641968 151.3565277777778)"/><use xlink:href="#m" transform="matrix(1,0,0,1,335.86614173228327,411.33333333333326) translate(0 168.84986111111115)"/><use xlink:href="#q" transform="matrix(1,0,0,1,335.86614173228327,411.33333333333326) translate(60.740740740740726 168.84986111111115)"/><use xlink:href="#r" transform="matrix(1,0,0,1,335.86614173228327,411.33333333333326) translate(138.337037037037 168.84986111111115)"/><use xlink:href="#m" transform="matrix(1,0,0,1,335.86614173228327,411.33333333333326) translate(0 186.3431944444445)"/><use xlink:href="#s" transform="matrix(1,0,0,1,335.86614173228327,411.33333333333326) translate(60.740740740740726 186.3431944444445)"/><use xlink:href="#g" transform="matrix(1,0,0,1,335.86614173228327,411.33333333333326) translate(147.4481481481481 186.3431944444445)"/><use xlink:href="#m" transform="matrix(1,0,0,1,335.86614173228327,411.33333333333326) translate(0 203.83652777777783)"/><use xlink:href="#t" transform="matrix(1,0,0,1,335.86614173228327,411.33333333333326) translate(60.740740740740726 203.83652777777783)"/><use xlink:href="#g" transform="matrix(1,0,0,1,335.86614173228327,411.33333333333326) translate(117.12839506172837 203.83652777777783)"/><use xlink:href="#m" transform="matrix(1,0,0,1,335.86614173228327,411.33333333333326) translate(0 221.32986111111117)"/><use xlink:href="#u" transform="matrix(1,0,0,1,335.86614173228327,411.33333333333326) translate(60.740740740740726 221.32986111111117)"/><use xlink:href="#g" transform="matrix(1,0,0,1,335.86614173228327,411.33333333333326) translate(156.5086419753086 221.32986111111117)"/><use xlink:href="#m" transform="matrix(1,0,0,1,335.86614173228327,411.33333333333326) translate(0 238.8231944444445)"/><use xlink:href="#v" transform="matrix(1,0,0,1,335.86614173228327,411.33333333333326) translate(60.740740740740726 238.8231944444445)"/><use xlink:href="#l" transform="matrix(1,0,0,1,335.86614173228327,411.33333333333326) translate(196.85061728395058 238.8231944444445)"/><use xlink:href="#w" transform="matrix(1,0,0,1,335.86614173228327,411.33333333333326) translate(0 256.3165277777778)"/><use xlink:href="#x" transform="matrix(1,0,0,1,335.86614173228327,411.33333333333326) translate(80.98765432098762 256.3165277777778)"/><use xlink:href="#o" transform="matrix(1,0,0,1,335.86614173228327,411.33333333333326) translate(173.76913580246907 256.3165277777778)"/><use xlink:href="#w" transform="matrix(1,0,0,1,335.86614173228327,411.33333333333326) translate(0 273.80986111111116)"/><use xlink:href="#y" transform="matrix(1,0,0,1,335.86614173228327,411.33333333333326) translate(80.98765432098762 273.80986111111116)"/><use xlink:href="#o" transform="matrix(1,0,0,1,335.86614173228327,411.33333333333326) translate(132.2123456790123 273.80986111111116)"/><use xlink:href="#w" transform="matrix(1,0,0,1,335.86614173228327,411.33333333333326) translate(0 291.3031944444445)"/><use xlink:href="#z" transform="matrix(1,0,0,1,335.86614173228327,411.33333333333326) translate(80.98765432098762 291.3031944444445)"/><use xlink:href="#o" transform="matrix(1,0,0,1,335.86614173228327,411.33333333333326) translate(191.89012345679004 291.3031944444445)"/><use xlink:href="#w" transform="matrix(1,0,0,1,335.86614173228327,411.33333333333326) translate(0 308.79652777777784)"/><use xlink:href="#A" transform="matrix(1,0,0,1,335.86614173228327,411.33333333333326) translate(80.98765432098762 308.79652777777784)"/><use xlink:href="#B" transform="matrix(1,0,0,1,335.86614173228327,411.33333333333326) translate(191.94074074074064 308.79652777777784)"/><use xlink:href="#m" transform="matrix(1,0,0,1,335.86614173228327,411.33333333333326) translate(0 326.2898611111112)"/><use xlink:href="#C" transform="matrix(1,0,0,1,335.86614173228327,411.33333333333326) translate(60.740740740740726 326.2898611111112)"/><use xlink:href="#m" transform="matrix(1,0,0,1,335.86614173228327,411.33333333333326) translate(0 343.7831944444445)"/><use xlink:href="#D" transform="matrix(1,0,0,1,335.86614173228327,411.33333333333326) translate(60.740740740740726 343.7831944444445)"/><use xlink:href="#E" transform="matrix(1,0,0,1,335.86614173228327,411.33333333333326) translate(162.58271604938267 343.7831944444445)"/><use xlink:href="#F" transform="matrix(1,0,0,1,335.86614173228327,411.33333333333326) translate(172.7061728395061 343.7831944444445)"/><use xlink:href="#k" transform="matrix(1,0,0,1,335.86614173228327,411.33333333333326) translate(0 361.27652777777786)"/><use xlink:href="#G" transform="matrix(1,0,0,1,335.86614173228327,411.33333333333326) translate(40.493827160493815 361.27652777777786)"/><use xlink:href="#e" transform="matrix(1,0,0,1,335.86614173228327,411.33333333333326) translate(0 378.7698611111112)"/><use xlink:href="#F" transform="matrix(1,0,0,1,335.86614173228327,411.33333333333326) translate(20.246913580246908 378.7698611111112)"/><use xlink:href="#H" transform="matrix(1,0,0,1,335.86614173228327,411.33333333333326) translate(0 396.26319444444454)"/><path d="M705.43 246.28h368l92 92v635.44h-460z" stroke="#5e5e5e" stroke-width="3" fill="#fff"/><path d="M1073.43 247.7v90.58H1164" stroke="#5e5e5e" stroke-width="3" fill="#fff"/><g><use xlink:href="#I" transform="matrix(1,0,0,1,710.4330708661416,251.2800000000001) translate(147.5 21.333333333333336)"/><use xlink:href="#J" transform="matrix(1,0,0,1,710.4330708661416,251.2800000000001) translate(0 41.95555555555555)"/><use xlink:href="#K" transform="matrix(1,0,0,1,710.4330708661416,251.2800000000001) translate(0 61.582222222222214)"/><use xlink:href="#L" transform="matrix(1,0,0,1,710.4330708661416,251.2800000000001) translate(22.71604938271604 61.582222222222214)"/><use xlink:href="#M" transform="matrix(1,0,0,1,710.4330708661416,251.2800000000001) translate(64.34320987654318 61.582222222222214)"/><use xlink:href="#K" transform="matrix(1,0,0,1,710.4330708661416,251.2800000000001) translate(0 81.20888888888888)"/><use xlink:href="#N" transform="matrix(1,0,0,1,710.4330708661416,251.2800000000001) translate(22.71604938271604 81.20888888888888)"/><use xlink:href="#O" transform="matrix(1,0,0,1,710.4330708661416,251.2800000000001) translate(105.23209876543206 81.20888888888888)"/><use xlink:href="#K" transform="matrix(1,0,0,1,710.4330708661416,251.2800000000001) translate(0 100.83555555555554)"/><use xlink:href="#P" transform="matrix(1,0,0,1,710.4330708661416,251.2800000000001) translate(22.71604938271604 100.83555555555554)"/><use xlink:href="#Q" transform="matrix(1,0,0,1,710.4330708661416,251.2800000000001) translate(160.8296296296296 100.83555555555554)"/><use xlink:href="#K" transform="matrix(1,0,0,1,710.4330708661416,251.2800000000001) translate(0 120.46222222222221)"/><use xlink:href="#R" transform="matrix(1,0,0,1,710.4330708661416,251.2800000000001) translate(22.71604938271604 120.46222222222221)"/><use xlink:href="#O" transform="matrix(1,0,0,1,710.4330708661416,251.2800000000001) translate(129.02716049382713 120.46222222222221)"/><use xlink:href="#K" transform="matrix(1,0,0,1,710.4330708661416,251.2800000000001) translate(0 140.08888888888887)"/><use xlink:href="#S" transform="matrix(1,0,0,1,710.4330708661416,251.2800000000001) translate(22.71604938271604 140.08888888888887)"/><use xlink:href="#T" transform="matrix(1,0,0,1,710.4330708661416,251.2800000000001) translate(97.22469135802466 140.08888888888887)"/><use xlink:href="#U" transform="matrix(1,0,0,1,710.4330708661416,251.2800000000001) translate(0 159.71555555555554)"/><use xlink:href="#V" transform="matrix(1,0,0,1,710.4330708661416,251.2800000000001) translate(45.43209876543209 159.71555555555554)"/><use xlink:href="#W" transform="matrix(1,0,0,1,710.4330708661416,251.2800000000001) translate(0 179.3422222222222)"/><use xlink:href="#X" transform="matrix(1,0,0,1,710.4330708661416,251.2800000000001) translate(68.14814814814814 179.3422222222222)"/><use xlink:href="#Q" transform="matrix(1,0,0,1,710.4330708661416,251.2800000000001) translate(192.74567901234565 179.3422222222222)"/><use xlink:href="#W" transform="matrix(1,0,0,1,710.4330708661416,251.2800000000001) translate(0 198.96888888888887)"/><use xlink:href="#Y" transform="matrix(1,0,0,1,710.4330708661416,251.2800000000001) translate(68.14814814814814 198.96888888888887)"/><use xlink:href="#Q" transform="matrix(1,0,0,1,710.4330708661416,251.2800000000001) translate(181.21728395061723 198.96888888888887)"/><use xlink:href="#W" transform="matrix(1,0,0,1,710.4330708661416,251.2800000000001) translate(0 218.59555555555553)"/><use xlink:href="#Z" transform="matrix(1,0,0,1,710.4330708661416,251.2800000000001) translate(68.14814814814814 218.59555555555553)"/><use xlink:href="#Q" transform="matrix(1,0,0,1,710.4330708661416,251.2800000000001) translate(155.20740740740737 218.59555555555553)"/><use xlink:href="#W" transform="matrix(1,0,0,1,710.4330708661416,251.2800000000001) translate(0 238.2222222222222)"/><use xlink:href="#aa" transform="matrix(1,0,0,1,710.4330708661416,251.2800000000001) translate(68.14814814814814 238.2222222222222)"/><use xlink:href="#O" transform="matrix(1,0,0,1,710.4330708661416,251.2800000000001) translate(165.42962962962957 238.2222222222222)"/><use xlink:href="#W" transform="matrix(1,0,0,1,710.4330708661416,251.2800000000001) translate(0 257.84888888888884)"/><use xlink:href="#ab" transform="matrix(1,0,0,1,710.4330708661416,251.2800000000001) translate(68.14814814814814 257.84888888888884)"/><use xlink:href="#O" transform="matrix(1,0,0,1,710.4330708661416,251.2800000000001) translate(131.41234567901233 257.84888888888884)"/><use xlink:href="#W" transform="matrix(1,0,0,1,710.4330708661416,251.2800000000001) translate(0 277.4755555555555)"/><use xlink:href="#ac" transform="matrix(1,0,0,1,710.4330708661416,251.2800000000001) translate(68.14814814814814 277.4755555555555)"/><use xlink:href="#O" transform="matrix(1,0,0,1,710.4330708661416,251.2800000000001) translate(175.59506172839502 277.4755555555555)"/><use xlink:href="#W" transform="matrix(1,0,0,1,710.4330708661416,251.2800000000001) translate(0 297.10222222222217)"/><use xlink:href="#ad" transform="matrix(1,0,0,1,710.4330708661416,251.2800000000001) translate(68.14814814814814 297.10222222222217)"/><use xlink:href="#V" transform="matrix(1,0,0,1,710.4330708661416,251.2800000000001) translate(220.85679012345673 297.10222222222217)"/><use xlink:href="#ae" transform="matrix(1,0,0,1,710.4330708661416,251.2800000000001) translate(0 316.72888888888883)"/><use xlink:href="#af" transform="matrix(1,0,0,1,710.4330708661416,251.2800000000001) translate(90.86419753086419 316.72888888888883)"/><use xlink:href="#Q" transform="matrix(1,0,0,1,710.4330708661416,251.2800000000001) translate(194.96049382716043 316.72888888888883)"/><use xlink:href="#ae" transform="matrix(1,0,0,1,710.4330708661416,251.2800000000001) translate(0 336.3555555555555)"/><use xlink:href="#ag" transform="matrix(1,0,0,1,710.4330708661416,251.2800000000001) translate(90.86419753086419 336.3555555555555)"/><use xlink:href="#Q" transform="matrix(1,0,0,1,710.4330708661416,251.2800000000001) translate(148.33580246913579 336.3555555555555)"/><use xlink:href="#ae" transform="matrix(1,0,0,1,710.4330708661416,251.2800000000001) translate(0 355.98222222222216)"/><use xlink:href="#ah" transform="matrix(1,0,0,1,710.4330708661416,251.2800000000001) translate(90.86419753086419 355.98222222222216)"/><use xlink:href="#Q" transform="matrix(1,0,0,1,710.4330708661416,251.2800000000001) translate(215.2913580246913 355.98222222222216)"/><use xlink:href="#ae" transform="matrix(1,0,0,1,710.4330708661416,251.2800000000001) translate(0 375.6088888888888)"/><use xlink:href="#ai" transform="matrix(1,0,0,1,710.4330708661416,251.2800000000001) translate(90.86419753086419 375.6088888888888)"/><use xlink:href="#aj" transform="matrix(1,0,0,1,710.4330708661416,251.2800000000001) translate(215.3481481481481 375.6088888888888)"/><use xlink:href="#W" transform="matrix(1,0,0,1,710.4330708661416,251.2800000000001) translate(0 395.2355555555555)"/><use xlink:href="#ak" transform="matrix(1,0,0,1,710.4330708661416,251.2800000000001) translate(68.14814814814814 395.2355555555555)"/><use xlink:href="#W" transform="matrix(1,0,0,1,710.4330708661416,251.2800000000001) translate(0 414.86222222222216)"/><use xlink:href="#al" transform="matrix(1,0,0,1,710.4330708661416,251.2800000000001) translate(68.14814814814814 414.86222222222216)"/><use xlink:href="#T" transform="matrix(1,0,0,1,710.4330708661416,251.2800000000001) translate(176.73086419753082 414.86222222222216)"/><use xlink:href="#ae" transform="matrix(1,0,0,1,710.4330708661416,251.2800000000001) translate(0 434.4888888888888)"/><use xlink:href="#V" transform="matrix(1,0,0,1,710.4330708661416,251.2800000000001) translate(90.86419753086419 434.4888888888888)"/><use xlink:href="#am" transform="matrix(1,0,0,1,710.4330708661416,251.2800000000001) translate(0 454.1155555555555)"/><use xlink:href="#an" transform="matrix(1,0,0,1,710.4330708661416,251.2800000000001) translate(113.58024691358024 454.1155555555555)"/><use xlink:href="#Q" transform="matrix(1,0,0,1,710.4330708661416,251.2800000000001) translate(223.63950617283945 454.1155555555555)"/><use xlink:href="#am" transform="matrix(1,0,0,1,710.4330708661416,251.2800000000001) translate(0 473.74222222222215)"/><use xlink:href="#ao" transform="matrix(1,0,0,1,710.4330708661416,251.2800000000001) translate(113.58024691358024 473.74222222222215)"/><use xlink:href="#Q" transform="matrix(1,0,0,1,710.4330708661416,251.2800000000001) translate(249.3086419753086 473.74222222222215)"/><use xlink:href="#am" transform="matrix(1,0,0,1,710.4330708661416,251.2800000000001) translate(0 493.3688888888888)"/><use xlink:href="#ap" transform="matrix(1,0,0,1,710.4330708661416,251.2800000000001) translate(113.58024691358024 493.3688888888888)"/><use xlink:href="#Q" transform="matrix(1,0,0,1,710.4330708661416,251.2800000000001) translate(184.73827160493823 493.3688888888888)"/><use xlink:href="#am" transform="matrix(1,0,0,1,710.4330708661416,251.2800000000001) translate(0 512.9955555555555)"/><use xlink:href="#aq" transform="matrix(1,0,0,1,710.4330708661416,251.2800000000001) translate(113.58024691358024 512.9955555555555)"/><use xlink:href="#Q" transform="matrix(1,0,0,1,710.4330708661416,251.2800000000001) translate(215.2913580246913 512.9955555555555)"/><use xlink:href="#am" transform="matrix(1,0,0,1,710.4330708661416,251.2800000000001) translate(0 532.622222222222)"/><use xlink:href="#ar" transform="matrix(1,0,0,1,710.4330708661416,251.2800000000001) translate(113.58024691358024 532.622222222222)"/><use xlink:href="#aj" transform="matrix(1,0,0,1,710.4330708661416,251.2800000000001) translate(211.9407407407407 532.622222222222)"/><use xlink:href="#as" transform="matrix(1,0,0,1,710.4330708661416,251.2800000000001) translate(0 552.2488888888887)"/><use xlink:href="#at" transform="matrix(1,0,0,1,710.4330708661416,251.2800000000001) translate(96.5432098765432 552.2488888888887)"/><use xlink:href="#W" transform="matrix(1,0,0,1,710.4330708661416,251.2800000000001) translate(0 571.8755555555554)"/><use xlink:href="#au" transform="matrix(1,0,0,1,710.4330708661416,251.2800000000001) translate(68.14814814814814 571.8755555555554)"/><use xlink:href="#U" transform="matrix(1,0,0,1,710.4330708661416,251.2800000000001) translate(0 591.502222222222)"/><use xlink:href="#at" transform="matrix(1,0,0,1,710.4330708661416,251.2800000000001) translate(45.43209876543209 591.502222222222)"/><use xlink:href="#K" transform="matrix(1,0,0,1,710.4330708661416,251.2800000000001) translate(0 611.1288888888887)"/><use xlink:href="#av" transform="matrix(1,0,0,1,710.4330708661416,251.2800000000001) translate(22.71604938271604 611.1288888888887)"/><use xlink:href="#K" transform="matrix(1,0,0,1,710.4330708661416,251.2800000000001) translate(0 630.7555555555554)"/><use xlink:href="#aw" transform="matrix(1,0,0,1,710.4330708661416,251.2800000000001) translate(22.71604938271604 630.7555555555554)"/><use xlink:href="#V" transform="matrix(1,0,0,1,710.4330708661416,251.2800000000001) translate(189.11111111111106 630.7555555555554)"/><use xlink:href="#U" transform="matrix(1,0,0,1,710.4330708661416,251.2800000000001) translate(0 650.382222222222)"/><use xlink:href="#ax" transform="matrix(1,0,0,1,710.4330708661416,251.2800000000001) translate(45.43209876543209 650.382222222222)"/><use xlink:href="#ay" transform="matrix(1,0,0,1,710.4330708661416,251.2800000000001) translate(217.61975308641968 650.382222222222)"/><use xlink:href="#U" transform="matrix(1,0,0,1,710.4330708661416,251.2800000000001) translate(0 670.0088888888887)"/><use xlink:href="#az" transform="matrix(1,0,0,1,710.4330708661416,251.2800000000001) translate(45.43209876543209 670.0088888888887)"/><use xlink:href="#aA" transform="matrix(1,0,0,1,710.4330708661416,251.2800000000001) translate(242.38024691358015 670.0088888888887)"/><use xlink:href="#K" transform="matrix(1,0,0,1,710.4330708661416,251.2800000000001) translate(0 689.6355555555554)"/><use xlink:href="#at" transform="matrix(1,0,0,1,710.4330708661416,251.2800000000001) translate(22.71604938271604 689.6355555555554)"/><use xlink:href="#aB" transform="matrix(1,0,0,1,710.4330708661416,251.2800000000001) translate(0 709.262222222222)"/></g><path d="M1200 482.87h249.15l50.85 50.85v203.4h-300z" stroke="#5e5e5e" stroke-width="3" fill="#fff"/><path d="M1449.15 484.3v49.42h49.42" stroke="#5e5e5e" stroke-width="3" fill="#fff"/><g><use xlink:href="#aC" transform="matrix(1,0,0,1,1205,487.8666666666667) translate(78.44444444444446 28.989583333333336)"/><use xlink:href="#d" transform="matrix(1,0,0,1,1205,487.8666666666667) translate(0 47.83402777777778)"/><use xlink:href="#e" transform="matrix(1,0,0,1,1205,487.8666666666667) translate(0 69.70069444444445)"/><use xlink:href="#aD" transform="matrix(1,0,0,1,1205,487.8666666666667) translate(20.246913580246908 69.70069444444445)"/><use xlink:href="#g" transform="matrix(1,0,0,1,1205,487.8666666666667) translate(57.34938271604936 69.70069444444445)"/><use xlink:href="#e" transform="matrix(1,0,0,1,1205,487.8666666666667) translate(0 91.5673611111111)"/><use xlink:href="#aE" transform="matrix(1,0,0,1,1205,487.8666666666667) translate(20.246913580246908 91.5673611111111)"/><use xlink:href="#o" transform="matrix(1,0,0,1,1205,487.8666666666667) translate(78.65925925925924 91.5673611111111)"/><use xlink:href="#e" transform="matrix(1,0,0,1,1205,487.8666666666667) translate(0 113.43402777777777)"/><use xlink:href="#aF" transform="matrix(1,0,0,1,1205,487.8666666666667) translate(20.246913580246908 113.43402777777777)"/><use xlink:href="#o" transform="matrix(1,0,0,1,1205,487.8666666666667) translate(77.6469135802469 113.43402777777777)"/><use xlink:href="#e" transform="matrix(1,0,0,1,1205,487.8666666666667) translate(0 135.30069444444442)"/><use xlink:href="#aG" transform="matrix(1,0,0,1,1205,487.8666666666667) translate(20.246913580246908 135.30069444444442)"/><use xlink:href="#l" transform="matrix(1,0,0,1,1205,487.8666666666667) translate(72.53456790123455 135.30069444444442)"/><use xlink:href="#k" transform="matrix(1,0,0,1,1205,487.8666666666667) translate(0 157.1673611111111)"/><use xlink:href="#aH" transform="matrix(1,0,0,1,1205,487.8666666666667) translate(40.493827160493815 157.1673611111111)"/><use xlink:href="#g" transform="matrix(1,0,0,1,1205,487.8666666666667) translate(125.12592592592588 157.1673611111111)"/><use xlink:href="#k" transform="matrix(1,0,0,1,1205,487.8666666666667) translate(0 179.03402777777777)"/><use xlink:href="#aI" transform="matrix(1,0,0,1,1205,487.8666666666667) translate(40.493827160493815 179.03402777777777)"/><use xlink:href="#g" transform="matrix(1,0,0,1,1205,487.8666666666667) translate(90.80740740740738 179.03402777777777)"/><use xlink:href="#k" transform="matrix(1,0,0,1,1205,487.8666666666667) translate(0 200.90069444444444)"/><use xlink:href="#aJ" transform="matrix(1,0,0,1,1205,487.8666666666667) translate(40.493827160493815 200.90069444444444)"/><use xlink:href="#B" transform="matrix(1,0,0,1,1205,487.8666666666667) translate(157.52098765432092 200.90069444444444)"/><use xlink:href="#aK" transform="matrix(1,0,0,1,1205,487.8666666666667) translate(0 222.76736111111111)"/><use xlink:href="#G" transform="matrix(1,0,0,1,1205,487.8666666666667) translate(30.370370370370363 222.76736111111111)"/><use xlink:href="#H" transform="matrix(1,0,0,1,1205,487.8666666666667) translate(0 244.6340277777778)"/></g><defs><path fill="#333" d="M230 0l2-204L168 0h-37L68-204 70 0H24v-248h70l56 185 57-185h69V0h-46" id="aL"/><path fill="#333" d="M169-182c-1-43-94-46-97-3 18 66 151 10 154 114 3 95-165 93-204 36-6-8-10-19-12-30l50-8c3 46 112 56 116 5-17-69-150-10-154-114-4-87 153-88 188-35 5 8 8 18 10 28" id="aM"/><g id="a"><use transform="matrix(0.06172839506172839,0,0,0.06172839506172839,0,0)" xlink:href="#aL"/><use transform="matrix(0.06172839506172839,0,0,0.06172839506172839,18.456790123456788,0)" xlink:href="#aM"/></g><path fill="#333" d="M110-194c64 0 96 36 96 99 0 64-35 99-97 99-61 0-95-36-95-99 0-62 34-99 96-99zm-1 164c35 0 45-28 45-65 0-40-10-65-43-65-34 0-45 26-45 65 0 36 10 65 43 65" id="aN"/><path fill="#333" d="M135-150c-39-12-60 13-60 57V0H25l-1-190h47c2 13-1 29 3 40 6-28 27-53 61-41v41" id="aO"/><path fill="#333" d="M88-194c31-1 46 15 58 34l-1-101h50l1 261h-48c-2-10 0-23-3-31C134-8 116 4 84 4 32 4 16-41 15-95c0-56 19-97 73-99zm17 164c33 0 40-30 41-66 1-37-9-64-41-64s-38 30-39 65c0 43 13 65 39 65" id="aP"/><path fill="#333" d="M185-48c-13 30-37 53-82 52C43 2 14-33 14-96s30-98 90-98c62 0 83 45 84 108H66c0 31 8 55 39 56 18 0 30-7 34-22zm-45-69c5-46-57-63-70-21-2 6-4 13-4 21h74" id="aQ"/><path fill="#333" d="M137-138c1-29-70-34-71-4 15 46 118 7 119 86 1 83-164 76-172 9l43-7c4 19 20 25 44 25 33 8 57-30 24-41C81-84 22-81 20-136c-2-80 154-74 161-7" id="aR"/><g id="b"><use transform="matrix(0.06172839506172839,0,0,0.06172839506172839,0,0)" xlink:href="#aN"/><use transform="matrix(0.06172839506172839,0,0,0.06172839506172839,13.518518518518517,0)" xlink:href="#aO"/><use transform="matrix(0.06172839506172839,0,0,0.06172839506172839,22.160493827160494,0)" xlink:href="#aP"/><use transform="matrix(0.06172839506172839,0,0,0.06172839506172839,35.67901234567901,0)" xlink:href="#aQ"/><use transform="matrix(0.06172839506172839,0,0,0.06172839506172839,48.02469135802469,0)" xlink:href="#aO"/><use transform="matrix(0.06172839506172839,0,0,0.06172839506172839,56.666666666666664,0)" xlink:href="#aR"/></g><path d="M212-179c-10-28-35-45-73-45-59 0-87 40-87 99 0 60 29 101 89 101 43 0 62-24 78-52l27 14C228-24 195 4 139 4 59 4 22-46 18-125c-6-104 99-153 187-111 19 9 31 26 39 46" id="aS"/><path d="M141-36C126-15 110 5 73 4 37 3 15-17 15-53c-1-64 63-63 125-63 3-35-9-54-41-54-24 1-41 7-42 31l-33-3c5-37 33-52 76-52 45 0 72 20 72 64v82c-1 20 7 32 28 27v20c-31 9-61-2-59-35zM48-53c0 20 12 33 32 33 41-3 63-29 60-74-43 2-92-5-92 41" id="aT"/><path d="M114-163C36-179 61-72 57 0H25l-1-190h30c1 12-1 29 2 39 6-27 23-49 58-41v29" id="aU"/><path d="M59-47c-2 24 18 29 38 22v24C64 9 27 4 27-40v-127H5v-23h24l9-43h21v43h35v23H59v120" id="aV"/><g id="c"><use transform="matrix(0.07407407407407408,0,0,0.07407407407407408,0,0)" xlink:href="#aS"/><use transform="matrix(0.07407407407407408,0,0,0.07407407407407408,19.185185185185187,0)" xlink:href="#aT"/><use transform="matrix(0.07407407407407408,0,0,0.07407407407407408,34,0)" xlink:href="#aU"/><use transform="matrix(0.07407407407407408,0,0,0.07407407407407408,42.814814814814824,0)" xlink:href="#aV"/></g><path d="M39-94c74 12-11 154 75 146v23c-44 4-70-10-70-52C44-23 55-84 6-82v-22c81 4-7-162 84-157h24v23c-82-15-2 131-75 144" id="aW"/><use transform="matrix(0.05061728395061727,0,0,0.05061728395061727,0,0)" xlink:href="#aW" id="d"/><path d="M109-170H84l-4-78h32zm-65 0H19l-4-78h33" id="aX"/><path d="M84 4C-5 8 30-112 23-190h32v120c0 31 7 50 39 49 72-2 45-101 50-169h31l1 190h-30c-1-10 1-25-2-33-11 22-28 36-60 37" id="aY"/><path d="M135-143c-3-34-86-38-87 0 15 53 115 12 119 90S17 21 10-45l28-5c4 36 97 45 98 0-10-56-113-15-118-90-4-57 82-63 122-42 12 7 21 19 24 35" id="aZ"/><path d="M100-194c63 0 86 42 84 106H49c0 40 14 67 53 68 26 1 43-12 49-29l28 8c-11 28-37 45-77 45C44 4 14-33 15-96c1-61 26-98 85-98zm52 81c6-60-76-77-97-28-3 7-6 17-6 28h103" id="ba"/><path d="M33 0v-248h34V0H33" id="bb"/><path d="M85-194c31 0 48 13 60 33l-1-100h32l1 261h-30c-2-10 0-23-3-31C134-8 116 4 85 4 32 4 16-35 15-94c0-66 23-100 70-100zm9 24c-40 0-46 34-46 75 0 40 6 74 45 74 42 0 51-32 51-76 0-42-9-74-50-73" id="bc"/><path d="M33-154v-36h34v36H33zM33 0v-36h34V0H33" id="bd"/><g id="f"><use transform="matrix(0.05061728395061727,0,0,0.05061728395061727,0,0)" xlink:href="#aX"/><use transform="matrix(0.05061728395061727,0,0,0.05061728395061727,6.428395061728393,0)" xlink:href="#aY"/><use transform="matrix(0.05061728395061727,0,0,0.05061728395061727,16.551851851851847,0)" xlink:href="#aZ"/><use transform="matrix(0.05061728395061727,0,0,0.05061728395061727,25.662962962962958,0)" xlink:href="#ba"/><use transform="matrix(0.05061728395061727,0,0,0.05061728395061727,35.78641975308641,0)" xlink:href="#aU"/><use transform="matrix(0.05061728395061727,0,0,0.05061728395061727,41.80987654320987,0)" xlink:href="#bb"/><use transform="matrix(0.05061728395061727,0,0,0.05061728395061727,46.871604938271595,0)" xlink:href="#bc"/><use transform="matrix(0.05061728395061727,0,0,0.05061728395061727,56.99506172839505,0)" xlink:href="#aX"/><use transform="matrix(0.05061728395061727,0,0,0.05061728395061727,63.42345679012344,0)" xlink:href="#bd"/></g><path d="M117-194c89-4 53 116 60 194h-32v-121c0-31-8-49-39-48C34-167 62-67 57 0H25l-1-190h30c1 10-1 24 2 32 11-22 29-35 61-36" id="be"/><path d="M210-169c-67 3-38 105-44 169h-31v-121c0-29-5-50-35-48C34-165 62-65 56 0H25l-1-190h30c1 10-1 24 2 32 10-44 99-50 107 0 11-21 27-35 58-36 85-2 47 119 55 194h-31v-121c0-29-5-49-35-48" id="bf"/><path d="M115-194c53 0 69 39 70 98 0 66-23 100-70 100C84 3 66-7 56-30L54 0H23l1-261h32v101c10-23 28-34 59-34zm-8 174c40 0 45-34 45-75 0-40-5-75-45-74-42 0-51 32-51 76 0 43 10 73 51 73" id="bg"/><path d="M68-38c1 34 0 65-14 84H32c9-13 17-26 17-46H33v-38h35" id="bh"/><g id="g"><use transform="matrix(0.05061728395061727,0,0,0.05061728395061727,0,0)" xlink:href="#be"/><use transform="matrix(0.05061728395061727,0,0,0.05061728395061727,10.123456790123454,0)" xlink:href="#aY"/><use transform="matrix(0.05061728395061727,0,0,0.05061728395061727,20.246913580246908,0)" xlink:href="#bf"/><use transform="matrix(0.05061728395061727,0,0,0.05061728395061727,35.38148148148147,0)" xlink:href="#bg"/><use transform="matrix(0.05061728395061727,0,0,0.05061728395061727,45.50493827160493,0)" xlink:href="#ba"/><use transform="matrix(0.05061728395061727,0,0,0.05061728395061727,55.62839506172838,0)" xlink:href="#aU"/><use transform="matrix(0.05061728395061727,0,0,0.05061728395061727,60.63950617283949,0)" xlink:href="#bh"/></g><path d="M100-194c62-1 85 37 85 99 1 63-27 99-86 99S16-35 15-95c0-66 28-99 85-99zM99-20c44 1 53-31 53-75 0-43-8-75-51-75s-53 32-53 75 10 74 51 75" id="bi"/><path d="M24 0v-261h32V0H24" id="bj"/><g id="h"><use transform="matrix(0.05061728395061727,0,0,0.05061728395061727,0,0)" xlink:href="#aX"/><use transform="matrix(0.05061728395061727,0,0,0.05061728395061727,6.428395061728393,0)" xlink:href="#aV"/><use transform="matrix(0.05061728395061727,0,0,0.05061728395061727,11.49012345679012,0)" xlink:href="#bi"/><use transform="matrix(0.05061728395061727,0,0,0.05061728395061727,21.61358024691357,0)" xlink:href="#aV"/><use transform="matrix(0.05061728395061727,0,0,0.05061728395061727,26.675308641975295,0)" xlink:href="#aT"/><use transform="matrix(0.05061728395061727,0,0,0.05061728395061727,36.798765432098755,0)" xlink:href="#bj"/><use transform="matrix(0.05061728395061727,0,0,0.05061728395061727,40.79753086419752,0)" xlink:href="#aS"/><use transform="matrix(0.05061728395061727,0,0,0.05061728395061727,53.90740740740739,0)" xlink:href="#bi"/><use transform="matrix(0.05061728395061727,0,0,0.05061728395061727,64.03086419753085,0)" xlink:href="#aZ"/><use transform="matrix(0.05061728395061727,0,0,0.05061728395061727,73.14197530864196,0)" xlink:href="#aV"/><use transform="matrix(0.05061728395061727,0,0,0.05061728395061727,78.20370370370368,0)" xlink:href="#aX"/><use transform="matrix(0.05061728395061727,0,0,0.05061728395061727,84.63209876543208,0)" xlink:href="#bd"/></g><path d="M24-231v-30h32v30H24zM24 0v-190h32V0H24" id="bk"/><g id="i"><use transform="matrix(0.05061728395061727,0,0,0.05061728395061727,0,0)" xlink:href="#aX"/><use transform="matrix(0.05061728395061727,0,0,0.05061728395061727,6.428395061728393,0)" xlink:href="#bk"/><use transform="matrix(0.05061728395061727,0,0,0.05061728395061727,10.427160493827158,0)" xlink:href="#aV"/><use transform="matrix(0.05061728395061727,0,0,0.05061728395061727,15.488888888888882,0)" xlink:href="#ba"/><use transform="matrix(0.05061728395061727,0,0,0.05061728395061727,25.612345679012336,0)" xlink:href="#bf"/><use transform="matrix(0.05061728395061727,0,0,0.05061728395061727,40.7469135802469,0)" xlink:href="#aZ"/><use transform="matrix(0.05061728395061727,0,0,0.05061728395061727,49.858024691358004,0)" xlink:href="#aX"/><use transform="matrix(0.05061728395061727,0,0,0.05061728395061727,56.28641975308639,0)" xlink:href="#bd"/></g><path d="M26 75v-336h71v23H56V52h41v23H26" id="bl"/><use transform="matrix(0.05061728395061727,0,0,0.05061728395061727,0,0)" xlink:href="#bl" id="j"/><use transform="matrix(0.05061728395061727,0,0,0.05061728395061727,0,0)" xlink:href="#aW" id="l"/><path d="M205 0l-28-72H64L36 0H1l101-248h38L239 0h-34zm-38-99l-47-123c-12 45-31 82-46 123h93" id="bm"/><g id="n"><use transform="matrix(0.05061728395061727,0,0,0.05061728395061727,0,0)" xlink:href="#aX"/><use transform="matrix(0.05061728395061727,0,0,0.05061728395061727,6.428395061728393,0)" xlink:href="#bc"/><use transform="matrix(0.05061728395061727,0,0,0.05061728395061727,16.551851851851847,0)" xlink:href="#aT"/><use transform="matrix(0.05061728395061727,0,0,0.05061728395061727,26.675308641975295,0)" xlink:href="#aV"/><use transform="matrix(0.05061728395061727,0,0,0.05061728395061727,31.73703703703703,0)" xlink:href="#ba"/><use transform="matrix(0.05061728395061727,0,0,0.05061728395061727,41.86049382716048,0)" xlink:href="#bm"/><use transform="matrix(0.05061728395061727,0,0,0.05061728395061727,54.00864197530863,0)" xlink:href="#bc"/><use transform="matrix(0.05061728395061727,0,0,0.05061728395061727,64.13209876543208,0)" xlink:href="#bc"/><use transform="matrix(0.05061728395061727,0,0,0.05061728395061727,74.25555555555553,0)" xlink:href="#ba"/><use transform="matrix(0.05061728395061727,0,0,0.05061728395061727,84.37901234567899,0)" xlink:href="#bc"/><use transform="matrix(0.05061728395061727,0,0,0.05061728395061727,94.50246913580244,0)" xlink:href="#aX"/><use transform="matrix(0.05061728395061727,0,0,0.05061728395061727,100.93086419753084,0)" xlink:href="#bd"/></g><path d="M177-190C167-65 218 103 67 71c-23-6-38-20-44-43l32-5c15 47 100 32 89-28v-30C133-14 115 1 83 1 29 1 15-40 15-95c0-56 16-97 71-98 29-1 48 16 59 35 1-10 0-23 2-32h30zM94-22c36 0 50-32 50-73 0-42-14-75-50-75-39 0-46 34-46 75s6 73 46 73" id="bn"/><g id="o"><use transform="matrix(0.05061728395061727,0,0,0.05061728395061727,0,0)" xlink:href="#aZ"/><use transform="matrix(0.05061728395061727,0,0,0.05061728395061727,9.111111111111109,0)" xlink:href="#aV"/><use transform="matrix(0.05061728395061727,0,0,0.05061728395061727,14.172839506172837,0)" xlink:href="#aU"/><use transform="matrix(0.05061728395061727,0,0,0.05061728395061727,20.19629629629629,0)" xlink:href="#bk"/><use transform="matrix(0.05061728395061727,0,0,0.05061728395061727,24.195061728395054,0)" xlink:href="#be"/><use transform="matrix(0.05061728395061727,0,0,0.05061728395061727,34.31851851851851,0)" xlink:href="#bn"/><use transform="matrix(0.05061728395061727,0,0,0.05061728395061727,44.441975308641965,0)" xlink:href="#bh"/></g><path d="M63-220v92h138v28H63V0H30v-248h175v28H63" id="bo"/><g id="p"><use transform="matrix(0.05061728395061727,0,0,0.05061728395061727,0,0)" xlink:href="#aX"/><use transform="matrix(0.05061728395061727,0,0,0.05061728395061727,6.428395061728393,0)" xlink:href="#bc"/><use transform="matrix(0.05061728395061727,0,0,0.05061728395061727,16.551851851851847,0)" xlink:href="#aT"/><use transform="matrix(0.05061728395061727,0,0,0.05061728395061727,26.675308641975295,0)" xlink:href="#aV"/><use transform="matrix(0.05061728395061727,0,0,0.05061728395061727,31.73703703703703,0)" xlink:href="#ba"/><use transform="matrix(0.05061728395061727,0,0,0.05061728395061727,41.86049382716048,0)" xlink:href="#bo"/><use transform="matrix(0.05061728395061727,0,0,0.05061728395061727,52.945679012345664,0)" xlink:href="#aU"/><use transform="matrix(0.05061728395061727,0,0,0.05061728395061727,58.96913580246912,0)" xlink:href="#bi"/><use transform="matrix(0.05061728395061727,0,0,0.05061728395061727,69.09259259259257,0)" xlink:href="#bf"/><use transform="matrix(0.05061728395061727,0,0,0.05061728395061727,84.22716049382713,0)" xlink:href="#aX"/><use transform="matrix(0.05061728395061727,0,0,0.05061728395061727,90.65555555555552,0)" xlink:href="#bd"/></g><path d="M127-220V0H93v-220H8v-28h204v28h-85" id="bp"/><g id="q"><use transform="matrix(0.05061728395061727,0,0,0.05061728395061727,0,0)" xlink:href="#aX"/><use transform="matrix(0.05061728395061727,0,0,0.05061728395061727,6.428395061728393,0)" xlink:href="#bc"/><use transform="matrix(0.05061728395061727,0,0,0.05061728395061727,16.551851851851847,0)" xlink:href="#aT"/><use transform="matrix(0.05061728395061727,0,0,0.05061728395061727,26.675308641975295,0)" xlink:href="#aV"/><use transform="matrix(0.05061728395061727,0,0,0.05061728395061727,31.73703703703703,0)" xlink:href="#ba"/><use transform="matrix(0.05061728395061727,0,0,0.05061728395061727,41.86049382716048,0)" xlink:href="#bp"/><use transform="matrix(0.05061728395061727,0,0,0.05061728395061727,50.920987654320975,0)" xlink:href="#bi"/><use transform="matrix(0.05061728395061727,0,0,0.05061728395061727,61.04444444444443,0)" xlink:href="#aX"/><use transform="matrix(0.05061728395061727,0,0,0.05061728395061727,67.47283950617282,0)" xlink:href="#bd"/></g><g id="r"><use transform="matrix(0.05061728395061727,0,0,0.05061728395061727,0,0)" xlink:href="#aZ"/><use transform="matrix(0.05061728395061727,0,0,0.05061728395061727,9.111111111111109,0)" xlink:href="#aV"/><use transform="matrix(0.05061728395061727,0,0,0.05061728395061727,14.172839506172837,0)" xlink:href="#aU"/><use transform="matrix(0.05061728395061727,0,0,0.05061728395061727,20.19629629629629,0)" xlink:href="#bk"/><use transform="matrix(0.05061728395061727,0,0,0.05061728395061727,24.195061728395054,0)" xlink:href="#be"/><use transform="matrix(0.05061728395061727,0,0,0.05061728395061727,34.31851851851851,0)" xlink:href="#bn"/><use transform="matrix(0.05061728395061727,0,0,0.05061728395061727,44.441975308641965,0)" xlink:href="#bh"/></g><path d="M145-31C134-9 116 4 85 4 32 4 16-35 15-94c0-59 17-99 70-100 32-1 48 14 60 33 0-11-1-24 2-32h30l-1 268h-32zM93-21c41 0 51-33 51-76s-8-73-50-73c-40 0-46 35-46 75s5 74 45 74" id="bq"/><path d="M179-190L93 31C79 59 56 82 12 73V49c39 6 53-20 64-50L1-190h34L92-34l54-156h33" id="br"/><g id="s"><use transform="matrix(0.05061728395061727,0,0,0.05061728395061727,0,0)" xlink:href="#aX"/><use transform="matrix(0.05061728395061727,0,0,0.05061728395061727,6.428395061728393,0)" xlink:href="#bq"/><use transform="matrix(0.05061728395061727,0,0,0.05061728395061727,16.551851851851847,0)" xlink:href="#aY"/><use transform="matrix(0.05061728395061727,0,0,0.05061728395061727,26.675308641975295,0)" xlink:href="#aT"/><use transform="matrix(0.05061728395061727,0,0,0.05061728395061727,36.798765432098755,0)" xlink:href="#be"/><use transform="matrix(0.05061728395061727,0,0,0.05061728395061727,46.92222222222221,0)" xlink:href="#aV"/><use transform="matrix(0.05061728395061727,0,0,0.05061728395061727,51.98395061728394,0)" xlink:href="#bk"/><use transform="matrix(0.05061728395061727,0,0,0.05061728395061727,55.9827160493827,0)" xlink:href="#aV"/><use transform="matrix(0.05061728395061727,0,0,0.05061728395061727,61.04444444444443,0)" xlink:href="#br"/><use transform="matrix(0.05061728395061727,0,0,0.05061728395061727,70.15555555555554,0)" xlink:href="#aX"/><use transform="matrix(0.05061728395061727,0,0,0.05061728395061727,76.58395061728393,0)" xlink:href="#bd"/></g><path d="M96-169c-40 0-48 33-48 73s9 75 48 75c24 0 41-14 43-38l32 2c-6 37-31 61-74 61-59 0-76-41-82-99-10-93 101-131 147-64 4 7 5 14 7 22l-32 3c-4-21-16-35-41-35" id="bs"/><g id="t"><use transform="matrix(0.05061728395061727,0,0,0.05061728395061727,0,0)" xlink:href="#aX"/><use transform="matrix(0.05061728395061727,0,0,0.05061728395061727,6.428395061728393,0)" xlink:href="#bs"/><use transform="matrix(0.05061728395061727,0,0,0.05061728395061727,15.539506172839502,0)" xlink:href="#bi"/><use transform="matrix(0.05061728395061727,0,0,0.05061728395061727,25.662962962962958,0)" xlink:href="#aZ"/><use transform="matrix(0.05061728395061727,0,0,0.05061728395061727,34.774074074074065,0)" xlink:href="#aV"/><use transform="matrix(0.05061728395061727,0,0,0.05061728395061727,39.83580246913579,0)" xlink:href="#aX"/><use transform="matrix(0.05061728395061727,0,0,0.05061728395061727,46.26419753086419,0)" xlink:href="#bd"/></g><path d="M108 0H70L1-190h34L89-25l56-165h34" id="bt"/><g id="u"><use transform="matrix(0.05061728395061727,0,0,0.05061728395061727,0,0)" xlink:href="#aX"/><use transform="matrix(0.05061728395061727,0,0,0.05061728395061727,6.428395061728393,0)" xlink:href="#aZ"/><use transform="matrix(0.05061728395061727,0,0,0.05061728395061727,15.539506172839502,0)" xlink:href="#ba"/><use transform="matrix(0.05061728395061727,0,0,0.05061728395061727,25.662962962962958,0)" xlink:href="#aU"/><use transform="matrix(0.05061728395061727,0,0,0.05061728395061727,31.686419753086412,0)" xlink:href="#bt"/><use transform="matrix(0.05061728395061727,0,0,0.05061728395061727,40.79753086419752,0)" xlink:href="#bk"/><use transform="matrix(0.05061728395061727,0,0,0.05061728395061727,44.79629629629628,0)" xlink:href="#bs"/><use transform="matrix(0.05061728395061727,0,0,0.05061728395061727,53.90740740740739,0)" xlink:href="#ba"/><use transform="matrix(0.05061728395061727,0,0,0.05061728395061727,64.03086419753085,0)" xlink:href="#bb"/><use transform="matrix(0.05061728395061727,0,0,0.05061728395061727,69.09259259259257,0)" xlink:href="#bc"/><use transform="matrix(0.05061728395061727,0,0,0.05061728395061727,79.21604938271602,0)" xlink:href="#aX"/><use transform="matrix(0.05061728395061727,0,0,0.05061728395061727,85.64444444444442,0)" xlink:href="#bd"/></g><path d="M30-248c118-7 216 8 213 122C240-48 200 0 122 0H30v-248zM63-27c89 8 146-16 146-99s-60-101-146-95v194" id="bu"/><g id="v"><use transform="matrix(0.05061728395061727,0,0,0.05061728395061727,0,0)" xlink:href="#aX"/><use transform="matrix(0.05061728395061727,0,0,0.05061728395061727,6.428395061728393,0)" xlink:href="#aZ"/><use transform="matrix(0.05061728395061727,0,0,0.05061728395061727,15.539506172839502,0)" xlink:href="#ba"/><use transform="matrix(0.05061728395061727,0,0,0.05061728395061727,25.662962962962958,0)" xlink:href="#aU"/><use transform="matrix(0.05061728395061727,0,0,0.05061728395061727,31.686419753086412,0)" xlink:href="#bt"/><use transform="matrix(0.05061728395061727,0,0,0.05061728395061727,40.79753086419752,0)" xlink:href="#bk"/><use transform="matrix(0.05061728395061727,0,0,0.05061728395061727,44.79629629629628,0)" xlink:href="#bs"/><use transform="matrix(0.05061728395061727,0,0,0.05061728395061727,53.90740740740739,0)" xlink:href="#ba"/><use transform="matrix(0.05061728395061727,0,0,0.05061728395061727,64.03086419753085,0)" xlink:href="#bu"/><use transform="matrix(0.05061728395061727,0,0,0.05061728395061727,77.14074074074072,0)" xlink:href="#ba"/><use transform="matrix(0.05061728395061727,0,0,0.05061728395061727,87.26419753086418,0)" xlink:href="#aV"/><use transform="matrix(0.05061728395061727,0,0,0.05061728395061727,92.3259259259259,0)" xlink:href="#aT"/><use transform="matrix(0.05061728395061727,0,0,0.05061728395061727,102.44938271604936,0)" xlink:href="#bk"/><use transform="matrix(0.05061728395061727,0,0,0.05061728395061727,106.44814814814812,0)" xlink:href="#bj"/><use transform="matrix(0.05061728395061727,0,0,0.05061728395061727,110.44691358024689,0)" xlink:href="#aZ"/><use transform="matrix(0.05061728395061727,0,0,0.05061728395061727,119.558024691358,0)" xlink:href="#aX"/><use transform="matrix(0.05061728395061727,0,0,0.05061728395061727,125.9864197530864,0)" xlink:href="#bd"/></g><g id="x"><use transform="matrix(0.05061728395061727,0,0,0.05061728395061727,0,0)" xlink:href="#aX"/><use transform="matrix(0.05061728395061727,0,0,0.05061728395061727,6.428395061728393,0)" xlink:href="#bs"/><use transform="matrix(0.05061728395061727,0,0,0.05061728395061727,15.539506172839502,0)" xlink:href="#aT"/><use transform="matrix(0.05061728395061727,0,0,0.05061728395061727,25.662962962962958,0)" xlink:href="#aV"/><use transform="matrix(0.05061728395061727,0,0,0.05061728395061727,30.724691358024685,0)" xlink:href="#ba"/><use transform="matrix(0.05061728395061727,0,0,0.05061728395061727,40.84814814814814,0)" xlink:href="#bn"/><use transform="matrix(0.05061728395061727,0,0,0.05061728395061727,50.9716049382716,0)" xlink:href="#bi"/><use transform="matrix(0.05061728395061727,0,0,0.05061728395061727,61.095061728395045,0)" xlink:href="#aU"/><use transform="matrix(0.05061728395061727,0,0,0.05061728395061727,67.11851851851851,0)" xlink:href="#br"/><use transform="matrix(0.05061728395061727,0,0,0.05061728395061727,76.22962962962963,0)" xlink:href="#aX"/><use transform="matrix(0.05061728395061727,0,0,0.05061728395061727,82.65802469135802,0)" xlink:href="#bd"/></g><g id="y"><use transform="matrix(0.05061728395061727,0,0,0.05061728395061727,0,0)" xlink:href="#aX"/><use transform="matrix(0.05061728395061727,0,0,0.05061728395061727,6.428395061728393,0)" xlink:href="#aV"/><use transform="matrix(0.05061728395061727,0,0,0.05061728395061727,11.49012345679012,0)" xlink:href="#bk"/><use transform="matrix(0.05061728395061727,0,0,0.05061728395061727,15.488888888888882,0)" xlink:href="#aV"/><use transform="matrix(0.05061728395061727,0,0,0.05061728395061727,20.55061728395061,0)" xlink:href="#bj"/><use transform="matrix(0.05061728395061727,0,0,0.05061728395061727,24.549382716049376,0)" xlink:href="#ba"/><use transform="matrix(0.05061728395061727,0,0,0.05061728395061727,34.67283950617283,0)" xlink:href="#aX"/><use transform="matrix(0.05061728395061727,0,0,0.05061728395061727,41.10123456790122,0)" xlink:href="#bd"/></g><path d="M115-194c55 1 70 41 70 98S169 2 115 4C84 4 66-9 55-30l1 105H24l-1-265h31l2 30c10-21 28-34 59-34zm-8 174c40 0 45-34 45-75s-6-73-45-74c-42 0-51 32-51 76 0 43 10 73 51 73" id="bv"/><g id="z"><use transform="matrix(0.05061728395061727,0,0,0.05061728395061727,0,0)" xlink:href="#aX"/><use transform="matrix(0.05061728395061727,0,0,0.05061728395061727,6.428395061728393,0)" xlink:href="#bc"/><use transform="matrix(0.05061728395061727,0,0,0.05061728395061727,16.551851851851847,0)" xlink:href="#ba"/><use transform="matrix(0.05061728395061727,0,0,0.05061728395061727,26.675308641975295,0)" xlink:href="#aZ"/><use transform="matrix(0.05061728395061727,0,0,0.05061728395061727,35.786419753086406,0)" xlink:href="#bs"/><use transform="matrix(0.05061728395061727,0,0,0.05061728395061727,44.89753086419751,0)" xlink:href="#aU"/><use transform="matrix(0.05061728395061727,0,0,0.05061728395061727,50.92098765432097,0)" xlink:href="#bk"/><use transform="matrix(0.05061728395061727,0,0,0.05061728395061727,54.919753086419725,0)" xlink:href="#bv"/><use transform="matrix(0.05061728395061727,0,0,0.05061728395061727,65.04320987654319,0)" xlink:href="#aV"/><use transform="matrix(0.05061728395061727,0,0,0.05061728395061727,70.10493827160491,0)" xlink:href="#bk"/><use transform="matrix(0.05061728395061727,0,0,0.05061728395061727,74.10370370370367,0)" xlink:href="#bi"/><use transform="matrix(0.05061728395061727,0,0,0.05061728395061727,84.22716049382713,0)" xlink:href="#be"/><use transform="matrix(0.05061728395061727,0,0,0.05061728395061727,94.35061728395058,0)" xlink:href="#aX"/><use transform="matrix(0.05061728395061727,0,0,0.05061728395061727,100.77901234567898,0)" xlink:href="#bd"/></g><g id="A"><use transform="matrix(0.05061728395061727,0,0,0.05061728395061727,0,0)" xlink:href="#aX"/><use transform="matrix(0.05061728395061727,0,0,0.05061728395061727,6.428395061728393,0)" xlink:href="#bc"/><use transform="matrix(0.05061728395061727,0,0,0.05061728395061727,16.551851851851847,0)" xlink:href="#ba"/><use transform="matrix(0.05061728395061727,0,0,0.05061728395061727,26.675308641975295,0)" xlink:href="#aZ"/><use transform="matrix(0.05061728395061727,0,0,0.05061728395061727,35.786419753086406,0)" xlink:href="#aV"/><use transform="matrix(0.05061728395061727,0,0,0.05061728395061727,40.848148148148134,0)" xlink:href="#bk"/><use transform="matrix(0.05061728395061727,0,0,0.05061728395061727,44.8469135802469,0)" xlink:href="#be"/><use transform="matrix(0.05061728395061727,0,0,0.05061728395061727,54.970370370370354,0)" xlink:href="#aT"/><use transform="matrix(0.05061728395061727,0,0,0.05061728395061727,65.0938271604938,0)" xlink:href="#aV"/><use transform="matrix(0.05061728395061727,0,0,0.05061728395061727,70.15555555555552,0)" xlink:href="#bk"/><use transform="matrix(0.05061728395061727,0,0,0.05061728395061727,74.15432098765429,0)" xlink:href="#bi"/><use transform="matrix(0.05061728395061727,0,0,0.05061728395061727,84.27777777777774,0)" xlink:href="#be"/><use transform="matrix(0.05061728395061727,0,0,0.05061728395061727,94.4012345679012,0)" xlink:href="#aX"/><use transform="matrix(0.05061728395061727,0,0,0.05061728395061727,100.8296296296296,0)" xlink:href="#bd"/></g><g id="B"><use transform="matrix(0.05061728395061727,0,0,0.05061728395061727,0,0)" xlink:href="#aZ"/><use transform="matrix(0.05061728395061727,0,0,0.05061728395061727,9.111111111111109,0)" xlink:href="#aV"/><use transform="matrix(0.05061728395061727,0,0,0.05061728395061727,14.172839506172837,0)" xlink:href="#aU"/><use transform="matrix(0.05061728395061727,0,0,0.05061728395061727,20.19629629629629,0)" xlink:href="#bk"/><use transform="matrix(0.05061728395061727,0,0,0.05061728395061727,24.195061728395054,0)" xlink:href="#be"/><use transform="matrix(0.05061728395061727,0,0,0.05061728395061727,34.31851851851851,0)" xlink:href="#bn"/></g><path d="M76-40C78 24 84 88 6 75V52C86 64 9-79 80-94c-40-6-34-59-34-106 1-29-11-41-40-38v-23c44-4 70 10 70 52 0 47-12 108 38 105v22c-26 1-39 14-38 42" id="bw"/><g id="C"><use transform="matrix(0.05061728395061727,0,0,0.05061728395061727,0,0)" xlink:href="#bw"/><use transform="matrix(0.05061728395061727,0,0,0.05061728395061727,6.074074074074073,0)" xlink:href="#bh"/></g><path d="M206 0h-36l-40-164L89 0H53L-1-190h32L70-26l43-164h34l41 164 42-164h31" id="bx"/><path d="M106-169C34-169 62-67 57 0H25v-261h32l-1 103c12-21 28-36 61-36 89 0 53 116 60 194h-32v-121c2-32-8-49-39-48" id="by"/><g id="D"><use transform="matrix(0.05061728395061727,0,0,0.05061728395061727,0,0)" xlink:href="#aX"/><use transform="matrix(0.05061728395061727,0,0,0.05061728395061727,6.428395061728393,0)" xlink:href="#bx"/><use transform="matrix(0.05061728395061727,0,0,0.05061728395061727,19.538271604938267,0)" xlink:href="#ba"/><use transform="matrix(0.05061728395061727,0,0,0.05061728395061727,29.661728395061722,0)" xlink:href="#aT"/><use transform="matrix(0.05061728395061727,0,0,0.05061728395061727,39.78518518518518,0)" xlink:href="#aV"/><use transform="matrix(0.05061728395061727,0,0,0.05061728395061727,44.846913580246905,0)" xlink:href="#by"/><use transform="matrix(0.05061728395061727,0,0,0.05061728395061727,54.970370370370354,0)" xlink:href="#ba"/><use transform="matrix(0.05061728395061727,0,0,0.05061728395061727,65.09382716049382,0)" xlink:href="#aU"/><use transform="matrix(0.05061728395061727,0,0,0.05061728395061727,71.11728395061728,0)" xlink:href="#aZ"/><use transform="matrix(0.05061728395061727,0,0,0.05061728395061727,80.22839506172839,0)" xlink:href="#aX"/><use transform="matrix(0.05061728395061727,0,0,0.05061728395061727,86.65679012345679,0)" xlink:href="#bd"/></g><use transform="matrix(0.05061728395061727,0,0,0.05061728395061727,0,0)" xlink:href="#bl" id="E"/><path d="M3 75V52h41v-290H3v-23h71V75H3" id="bz"/><use transform="matrix(0.05061728395061727,0,0,0.05061728395061727,0,0)" xlink:href="#bz" id="F"/><use transform="matrix(0.05061728395061727,0,0,0.05061728395061727,0,0)" xlink:href="#bw" id="G"/><use transform="matrix(0.05061728395061727,0,0,0.05061728395061727,0,0)" xlink:href="#bw" id="H"/><path d="M140-251c81 0 123 46 123 126C263-46 219 4 140 4 59 4 17-45 17-125s42-126 123-126zm0 227c63 0 89-41 89-101s-29-99-89-99c-61 0-89 39-89 99S79-25 140-24" id="bA"/><g id="I"><use transform="matrix(0.07407407407407408,0,0,0.07407407407407408,0,0)" xlink:href="#bA"/><use transform="matrix(0.07407407407407408,0,0,0.07407407407407408,20.740740740740744,0)" xlink:href="#aU"/><use transform="matrix(0.07407407407407408,0,0,0.07407407407407408,29.55555555555556,0)" xlink:href="#bc"/><use transform="matrix(0.07407407407407408,0,0,0.07407407407407408,44.37037037037039,0)" xlink:href="#ba"/><use transform="matrix(0.07407407407407408,0,0,0.07407407407407408,59.185185185185205,0)" xlink:href="#aU"/></g><use transform="matrix(0.0567901234567901,0,0,0.0567901234567901,0,0)" xlink:href="#aW" id="J"/><g id="L"><use transform="matrix(0.0567901234567901,0,0,0.0567901234567901,0,0)" xlink:href="#aX"/><use transform="matrix(0.0567901234567901,0,0,0.0567901234567901,7.212345679012342,0)" xlink:href="#bk"/><use transform="matrix(0.0567901234567901,0,0,0.0567901234567901,11.69876543209876,0)" xlink:href="#bc"/><use transform="matrix(0.0567901234567901,0,0,0.0567901234567901,23.05679012345678,0)" xlink:href="#aX"/><use transform="matrix(0.0567901234567901,0,0,0.0567901234567901,30.269135802469123,0)" xlink:href="#bd"/></g><path d="M185-189c-5-48-123-54-124 2 14 75 158 14 163 119 3 78-121 87-175 55-17-10-28-26-33-46l33-7c5 56 141 63 141-1 0-78-155-14-162-118-5-82 145-84 179-34 5 7 8 16 11 25" id="bB"/><g id="M"><use transform="matrix(0.0567901234567901,0,0,0.0567901234567901,0,0)" xlink:href="#bB"/><use transform="matrix(0.0567901234567901,0,0,0.0567901234567901,13.629629629629623,0)" xlink:href="#aV"/><use transform="matrix(0.0567901234567901,0,0,0.0567901234567901,19.308641975308632,0)" xlink:href="#aU"/><use transform="matrix(0.0567901234567901,0,0,0.0567901234567901,26.066666666666652,0)" xlink:href="#bk"/><use transform="matrix(0.0567901234567901,0,0,0.0567901234567901,30.553086419753072,0)" xlink:href="#be"/><use transform="matrix(0.0567901234567901,0,0,0.0567901234567901,41.91111111111109,0)" xlink:href="#bn"/><use transform="matrix(0.0567901234567901,0,0,0.0567901234567901,53.26913580246911,0)" xlink:href="#bh"/></g><g id="N"><use transform="matrix(0.0567901234567901,0,0,0.0567901234567901,0,0)" xlink:href="#aX"/><use transform="matrix(0.0567901234567901,0,0,0.0567901234567901,7.212345679012342,0)" xlink:href="#aY"/><use transform="matrix(0.0567901234567901,0,0,0.0567901234567901,18.570370370370362,0)" xlink:href="#aZ"/><use transform="matrix(0.0567901234567901,0,0,0.0567901234567901,28.79259259259258,0)" xlink:href="#ba"/><use transform="matrix(0.0567901234567901,0,0,0.0567901234567901,40.1506172839506,0)" xlink:href="#aU"/><use transform="matrix(0.0567901234567901,0,0,0.0567901234567901,46.908641975308626,0)" xlink:href="#bb"/><use transform="matrix(0.0567901234567901,0,0,0.0567901234567901,52.58765432098764,0)" xlink:href="#bc"/><use transform="matrix(0.0567901234567901,0,0,0.0567901234567901,63.945679012345664,0)" xlink:href="#aX"/><use transform="matrix(0.0567901234567901,0,0,0.0567901234567901,71.158024691358,0)" xlink:href="#bd"/></g><g id="O"><use transform="matrix(0.0567901234567901,0,0,0.0567901234567901,0,0)" xlink:href="#be"/><use transform="matrix(0.0567901234567901,0,0,0.0567901234567901,11.35802469135802,0)" xlink:href="#aY"/><use transform="matrix(0.0567901234567901,0,0,0.0567901234567901,22.71604938271604,0)" xlink:href="#bf"/><use transform="matrix(0.0567901234567901,0,0,0.0567901234567901,39.69629629629628,0)" xlink:href="#bg"/><use transform="matrix(0.0567901234567901,0,0,0.0567901234567901,51.0543209876543,0)" xlink:href="#ba"/><use transform="matrix(0.0567901234567901,0,0,0.0567901234567901,62.41234567901232,0)" xlink:href="#aU"/><use transform="matrix(0.0567901234567901,0,0,0.0567901234567901,68.03456790123454,0)" xlink:href="#bh"/></g><g id="P"><use transform="matrix(0.0567901234567901,0,0,0.0567901234567901,0,0)" xlink:href="#aX"/><use transform="matrix(0.0567901234567901,0,0,0.0567901234567901,7.212345679012342,0)" xlink:href="#bc"/><use transform="matrix(0.0567901234567901,0,0,0.0567901234567901,18.570370370370362,0)" xlink:href="#aT"/><use transform="matrix(0.0567901234567901,0,0,0.0567901234567901,29.92839506172838,0)" xlink:href="#aV"/><use transform="matrix(0.0567901234567901,0,0,0.0567901234567901,35.60740740740739,0)" xlink:href="#ba"/><use transform="matrix(0.0567901234567901,0,0,0.0567901234567901,46.96543209876541,0)" xlink:href="#aS"/><use transform="matrix(0.0567901234567901,0,0,0.0567901234567901,61.67407407407404,0)" xlink:href="#aU"/><use transform="matrix(0.0567901234567901,0,0,0.0567901234567901,68.43209876543207,0)" xlink:href="#ba"/><use transform="matrix(0.0567901234567901,0,0,0.0567901234567901,79.7901234567901,0)" xlink:href="#aT"/><use transform="matrix(0.0567901234567901,0,0,0.0567901234567901,91.14814814814812,0)" xlink:href="#aV"/><use transform="matrix(0.0567901234567901,0,0,0.0567901234567901,96.82716049382714,0)" xlink:href="#ba"/><use transform="matrix(0.0567901234567901,0,0,0.0567901234567901,108.18518518518516,0)" xlink:href="#bc"/><use transform="matrix(0.0567901234567901,0,0,0.0567901234567901,119.54320987654317,0)" xlink:href="#aX"/><use transform="matrix(0.0567901234567901,0,0,0.0567901234567901,126.75555555555552,0)" xlink:href="#bd"/></g><g id="Q"><use transform="matrix(0.0567901234567901,0,0,0.0567901234567901,0,0)" xlink:href="#aZ"/><use transform="matrix(0.0567901234567901,0,0,0.0567901234567901,10.222222222222218,0)" xlink:href="#aV"/><use transform="matrix(0.0567901234567901,0,0,0.0567901234567901,15.901234567901227,0)" xlink:href="#aU"/><use transform="matrix(0.0567901234567901,0,0,0.0567901234567901,22.659259259259247,0)" xlink:href="#bk"/><use transform="matrix(0.0567901234567901,0,0,0.0567901234567901,27.145679012345667,0)" xlink:href="#be"/><use transform="matrix(0.0567901234567901,0,0,0.0567901234567901,38.503703703703685,0)" xlink:href="#bn"/><use transform="matrix(0.0567901234567901,0,0,0.0567901234567901,49.861728395061704,0)" xlink:href="#bh"/></g><g id="R"><use transform="matrix(0.0567901234567901,0,0,0.0567901234567901,0,0)" xlink:href="#aX"/><use transform="matrix(0.0567901234567901,0,0,0.0567901234567901,7.212345679012342,0)" xlink:href="#aV"/><use transform="matrix(0.0567901234567901,0,0,0.0567901234567901,12.891358024691353,0)" xlink:href="#bi"/><use transform="matrix(0.0567901234567901,0,0,0.0567901234567901,24.249382716049375,0)" xlink:href="#aV"/><use transform="matrix(0.0567901234567901,0,0,0.0567901234567901,29.928395061728388,0)" xlink:href="#aT"/><use transform="matrix(0.0567901234567901,0,0,0.0567901234567901,41.286419753086406,0)" xlink:href="#bj"/><use transform="matrix(0.0567901234567901,0,0,0.0567901234567901,45.77283950617282,0)" xlink:href="#aS"/><use transform="matrix(0.0567901234567901,0,0,0.0567901234567901,60.48148148148147,0)" xlink:href="#bi"/><use transform="matrix(0.0567901234567901,0,0,0.0567901234567901,71.83950617283948,0)" xlink:href="#aZ"/><use transform="matrix(0.0567901234567901,0,0,0.0567901234567901,82.06172839506169,0)" xlink:href="#aV"/><use transform="matrix(0.0567901234567901,0,0,0.0567901234567901,87.7407407407407,0)" xlink:href="#aX"/><use transform="matrix(0.0567901234567901,0,0,0.0567901234567901,94.95308641975305,0)" xlink:href="#bd"/></g><g id="S"><use transform="matrix(0.0567901234567901,0,0,0.0567901234567901,0,0)" xlink:href="#aX"/><use transform="matrix(0.0567901234567901,0,0,0.0567901234567901,7.212345679012342,0)" xlink:href="#bk"/><use transform="matrix(0.0567901234567901,0,0,0.0567901234567901,11.69876543209876,0)" xlink:href="#aV"/><use transform="matrix(0.0567901234567901,0,0,0.0567901234567901,17.37777777777777,0)" xlink:href="#ba"/><use transform="matrix(0.0567901234567901,0,0,0.0567901234567901,28.73580246913579,0)" xlink:href="#bf"/><use transform="matrix(0.0567901234567901,0,0,0.0567901234567901,45.71604938271603,0)" xlink:href="#aZ"/><use transform="matrix(0.0567901234567901,0,0,0.0567901234567901,55.93827160493825,0)" xlink:href="#aX"/><use transform="matrix(0.0567901234567901,0,0,0.0567901234567901,63.1506172839506,0)" xlink:href="#bd"/></g><use transform="matrix(0.0567901234567901,0,0,0.0567901234567901,0,0)" xlink:href="#bl" id="T"/><use transform="matrix(0.0567901234567901,0,0,0.0567901234567901,0,0)" xlink:href="#aW" id="V"/><g id="X"><use transform="matrix(0.0567901234567901,0,0,0.0567901234567901,0,0)" xlink:href="#aX"/><use transform="matrix(0.0567901234567901,0,0,0.0567901234567901,7.212345679012342,0)" xlink:href="#bc"/><use transform="matrix(0.0567901234567901,0,0,0.0567901234567901,18.570370370370362,0)" xlink:href="#aT"/><use transform="matrix(0.0567901234567901,0,0,0.0567901234567901,29.92839506172838,0)" xlink:href="#aV"/><use transform="matrix(0.0567901234567901,0,0,0.0567901234567901,35.60740740740739,0)" xlink:href="#ba"/><use transform="matrix(0.0567901234567901,0,0,0.0567901234567901,46.96543209876541,0)" xlink:href="#bm"/><use transform="matrix(0.0567901234567901,0,0,0.0567901234567901,60.59506172839503,0)" xlink:href="#bc"/><use transform="matrix(0.0567901234567901,0,0,0.0567901234567901,71.95308641975306,0)" xlink:href="#bc"/><use transform="matrix(0.0567901234567901,0,0,0.0567901234567901,83.31111111111109,0)" xlink:href="#ba"/><use transform="matrix(0.0567901234567901,0,0,0.0567901234567901,94.66913580246911,0)" xlink:href="#bc"/><use transform="matrix(0.0567901234567901,0,0,0.0567901234567901,106.02716049382714,0)" xlink:href="#aX"/><use transform="matrix(0.0567901234567901,0,0,0.0567901234567901,113.23950617283948,0)" xlink:href="#bd"/></g><g id="Y"><use transform="matrix(0.0567901234567901,0,0,0.0567901234567901,0,0)" xlink:href="#aX"/><use transform="matrix(0.0567901234567901,0,0,0.0567901234567901,7.212345679012342,0)" xlink:href="#bc"/><use transform="matrix(0.0567901234567901,0,0,0.0567901234567901,18.570370370370362,0)" xlink:href="#aT"/><use transform="matrix(0.0567901234567901,0,0,0.0567901234567901,29.92839506172838,0)" xlink:href="#aV"/><use transform="matrix(0.0567901234567901,0,0,0.0567901234567901,35.60740740740739,0)" xlink:href="#ba"/><use transform="matrix(0.0567901234567901,0,0,0.0567901234567901,46.96543209876541,0)" xlink:href="#bo"/><use transform="matrix(0.0567901234567901,0,0,0.0567901234567901,59.40246913580244,0)" xlink:href="#aU"/><use transform="matrix(0.0567901234567901,0,0,0.0567901234567901,66.16049382716047,0)" xlink:href="#bi"/><use transform="matrix(0.0567901234567901,0,0,0.0567901234567901,77.51851851851849,0)" xlink:href="#bf"/><use transform="matrix(0.0567901234567901,0,0,0.0567901234567901,94.49876543209874,0)" xlink:href="#aX"/><use transform="matrix(0.0567901234567901,0,0,0.0567901234567901,101.71111111111108,0)" xlink:href="#bd"/></g><g id="Z"><use transform="matrix(0.0567901234567901,0,0,0.0567901234567901,0,0)" xlink:href="#aX"/><use transform="matrix(0.0567901234567901,0,0,0.0567901234567901,7.212345679012342,0)" xlink:href="#bc"/><use transform="matrix(0.0567901234567901,0,0,0.0567901234567901,18.570370370370362,0)" xlink:href="#aT"/><use transform="matrix(0.0567901234567901,0,0,0.0567901234567901,29.92839506172838,0)" xlink:href="#aV"/><use transform="matrix(0.0567901234567901,0,0,0.0567901234567901,35.60740740740739,0)" xlink:href="#ba"/><use transform="matrix(0.0567901234567901,0,0,0.0567901234567901,46.96543209876541,0)" xlink:href="#bp"/><use transform="matrix(0.0567901234567901,0,0,0.0567901234567901,57.13086419753084,0)" xlink:href="#bi"/><use transform="matrix(0.0567901234567901,0,0,0.0567901234567901,68.48888888888887,0)" xlink:href="#aX"/><use transform="matrix(0.0567901234567901,0,0,0.0567901234567901,75.70123456790121,0)" xlink:href="#bd"/></g><g id="aa"><use transform="matrix(0.0567901234567901,0,0,0.0567901234567901,0,0)" xlink:href="#aX"/><use transform="matrix(0.0567901234567901,0,0,0.0567901234567901,7.212345679012342,0)" xlink:href="#bq"/><use transform="matrix(0.0567901234567901,0,0,0.0567901234567901,18.570370370370362,0)" xlink:href="#aY"/><use transform="matrix(0.0567901234567901,0,0,0.0567901234567901,29.92839506172838,0)" xlink:href="#aT"/><use transform="matrix(0.0567901234567901,0,0,0.0567901234567901,41.2864197530864,0)" xlink:href="#be"/><use transform="matrix(0.0567901234567901,0,0,0.0567901234567901,52.64444444444442,0)" xlink:href="#aV"/><use transform="matrix(0.0567901234567901,0,0,0.0567901234567901,58.32345679012343,0)" xlink:href="#bk"/><use transform="matrix(0.0567901234567901,0,0,0.0567901234567901,62.809876543209846,0)" xlink:href="#aV"/><use transform="matrix(0.0567901234567901,0,0,0.0567901234567901,68.48888888888885,0)" xlink:href="#br"/><use transform="matrix(0.0567901234567901,0,0,0.0567901234567901,78.71111111111107,0)" xlink:href="#aX"/><use transform="matrix(0.0567901234567901,0,0,0.0567901234567901,85.92345679012341,0)" xlink:href="#bd"/></g><g id="ab"><use transform="matrix(0.0567901234567901,0,0,0.0567901234567901,0,0)" xlink:href="#aX"/><use transform="matrix(0.0567901234567901,0,0,0.0567901234567901,7.212345679012342,0)" xlink:href="#bs"/><use transform="matrix(0.0567901234567901,0,0,0.0567901234567901,17.43456790123456,0)" xlink:href="#bi"/><use transform="matrix(0.0567901234567901,0,0,0.0567901234567901,28.792592592592577,0)" xlink:href="#aZ"/><use transform="matrix(0.0567901234567901,0,0,0.0567901234567901,39.0148148148148,0)" xlink:href="#aV"/><use transform="matrix(0.0567901234567901,0,0,0.0567901234567901,44.69382716049381,0)" xlink:href="#aX"/><use transform="matrix(0.0567901234567901,0,0,0.0567901234567901,51.906172839506155,0)" xlink:href="#bd"/></g><g id="ac"><use transform="matrix(0.0567901234567901,0,0,0.0567901234567901,0,0)" xlink:href="#aX"/><use transform="matrix(0.0567901234567901,0,0,0.0567901234567901,7.212345679012342,0)" xlink:href="#aZ"/><use transform="matrix(0.0567901234567901,0,0,0.0567901234567901,17.43456790123456,0)" xlink:href="#ba"/><use transform="matrix(0.0567901234567901,0,0,0.0567901234567901,28.792592592592577,0)" xlink:href="#aU"/><use transform="matrix(0.0567901234567901,0,0,0.0567901234567901,35.5506172839506,0)" xlink:href="#bt"/><use transform="matrix(0.0567901234567901,0,0,0.0567901234567901,45.772839506172815,0)" xlink:href="#bk"/><use transform="matrix(0.0567901234567901,0,0,0.0567901234567901,50.25925925925923,0)" xlink:href="#bs"/><use transform="matrix(0.0567901234567901,0,0,0.0567901234567901,60.48148148148145,0)" xlink:href="#ba"/><use transform="matrix(0.0567901234567901,0,0,0.0567901234567901,71.83950617283948,0)" xlink:href="#bb"/><use transform="matrix(0.0567901234567901,0,0,0.0567901234567901,77.51851851851849,0)" xlink:href="#bc"/><use transform="matrix(0.0567901234567901,0,0,0.0567901234567901,88.87654320987652,0)" xlink:href="#aX"/><use transform="matrix(0.0567901234567901,0,0,0.0567901234567901,96.08888888888886,0)" xlink:href="#bd"/></g><g id="ad"><use transform="matrix(0.0567901234567901,0,0,0.0567901234567901,0,0)" xlink:href="#aX"/><use transform="matrix(0.0567901234567901,0,0,0.0567901234567901,7.212345679012342,0)" xlink:href="#aZ"/><use transform="matrix(0.0567901234567901,0,0,0.0567901234567901,17.43456790123456,0)" xlink:href="#ba"/><use transform="matrix(0.0567901234567901,0,0,0.0567901234567901,28.792592592592577,0)" xlink:href="#aU"/><use transform="matrix(0.0567901234567901,0,0,0.0567901234567901,35.5506172839506,0)" xlink:href="#bt"/><use transform="matrix(0.0567901234567901,0,0,0.0567901234567901,45.772839506172815,0)" xlink:href="#bk"/><use transform="matrix(0.0567901234567901,0,0,0.0567901234567901,50.25925925925923,0)" xlink:href="#bs"/><use transform="matrix(0.0567901234567901,0,0,0.0567901234567901,60.48148148148145,0)" xlink:href="#ba"/><use transform="matrix(0.0567901234567901,0,0,0.0567901234567901,71.83950617283948,0)" xlink:href="#bu"/><use transform="matrix(0.0567901234567901,0,0,0.0567901234567901,86.54814814814812,0)" xlink:href="#ba"/><use transform="matrix(0.0567901234567901,0,0,0.0567901234567901,97.90617283950614,0)" xlink:href="#aV"/><use transform="matrix(0.0567901234567901,0,0,0.0567901234567901,103.58518518518515,0)" xlink:href="#aT"/><use transform="matrix(0.0567901234567901,0,0,0.0567901234567901,114.94320987654318,0)" xlink:href="#bk"/><use transform="matrix(0.0567901234567901,0,0,0.0567901234567901,119.4296296296296,0)" xlink:href="#bj"/><use transform="matrix(0.0567901234567901,0,0,0.0567901234567901,123.91604938271601,0)" xlink:href="#aZ"/><use transform="matrix(0.0567901234567901,0,0,0.0567901234567901,134.13827160493824,0)" xlink:href="#aX"/><use transform="matrix(0.0567901234567901,0,0,0.0567901234567901,141.35061728395058,0)" xlink:href="#bd"/></g><g id="af"><use transform="matrix(0.0567901234567901,0,0,0.0567901234567901,0,0)" xlink:href="#aX"/><use transform="matrix(0.0567901234567901,0,0,0.0567901234567901,7.212345679012342,0)" xlink:href="#bs"/><use transform="matrix(0.0567901234567901,0,0,0.0567901234567901,17.43456790123456,0)" xlink:href="#aT"/><use transform="matrix(0.0567901234567901,0,0,0.0567901234567901,28.792592592592577,0)" xlink:href="#aV"/><use transform="matrix(0.0567901234567901,0,0,0.0567901234567901,34.47160493827159,0)" xlink:href="#ba"/><use transform="matrix(0.0567901234567901,0,0,0.0567901234567901,45.82962962962961,0)" xlink:href="#bn"/><use transform="matrix(0.0567901234567901,0,0,0.0567901234567901,57.187654320987626,0)" xlink:href="#bi"/><use transform="matrix(0.0567901234567901,0,0,0.0567901234567901,68.54567901234564,0)" xlink:href="#aU"/><use transform="matrix(0.0567901234567901,0,0,0.0567901234567901,75.30370370370366,0)" xlink:href="#br"/><use transform="matrix(0.0567901234567901,0,0,0.0567901234567901,85.52592592592588,0)" xlink:href="#aX"/><use transform="matrix(0.0567901234567901,0,0,0.0567901234567901,92.73827160493822,0)" xlink:href="#bd"/></g><g id="ag"><use transform="matrix(0.0567901234567901,0,0,0.0567901234567901,0,0)" xlink:href="#aX"/><use transform="matrix(0.0567901234567901,0,0,0.0567901234567901,7.212345679012342,0)" xlink:href="#aV"/><use transform="matrix(0.0567901234567901,0,0,0.0567901234567901,12.891358024691353,0)" xlink:href="#bk"/><use transform="matrix(0.0567901234567901,0,0,0.0567901234567901,17.377777777777773,0)" xlink:href="#aV"/><use transform="matrix(0.0567901234567901,0,0,0.0567901234567901,23.056790123456782,0)" xlink:href="#bj"/><use transform="matrix(0.0567901234567901,0,0,0.0567901234567901,27.5432098765432,0)" xlink:href="#ba"/><use transform="matrix(0.0567901234567901,0,0,0.0567901234567901,38.90123456790122,0)" xlink:href="#aX"/><use transform="matrix(0.0567901234567901,0,0,0.0567901234567901,46.113580246913564,0)" xlink:href="#bd"/></g><g id="ah"><use transform="matrix(0.0567901234567901,0,0,0.0567901234567901,0,0)" xlink:href="#aX"/><use transform="matrix(0.0567901234567901,0,0,0.0567901234567901,7.212345679012342,0)" xlink:href="#bc"/><use transform="matrix(0.0567901234567901,0,0,0.0567901234567901,18.570370370370362,0)" xlink:href="#ba"/><use transform="matrix(0.0567901234567901,0,0,0.0567901234567901,29.92839506172838,0)" xlink:href="#aZ"/><use transform="matrix(0.0567901234567901,0,0,0.0567901234567901,40.150617283950595,0)" xlink:href="#bs"/><use transform="matrix(0.0567901234567901,0,0,0.0567901234567901,50.37283950617281,0)" xlink:href="#aU"/><use transform="matrix(0.0567901234567901,0,0,0.0567901234567901,57.13086419753083,0)" xlink:href="#bk"/><use transform="matrix(0.0567901234567901,0,0,0.0567901234567901,61.61728395061726,0)" xlink:href="#bv"/><use transform="matrix(0.0567901234567901,0,0,0.0567901234567901,72.97530864197527,0)" xlink:href="#aV"/><use transform="matrix(0.0567901234567901,0,0,0.0567901234567901,78.65432098765429,0)" xlink:href="#bk"/><use transform="matrix(0.0567901234567901,0,0,0.0567901234567901,83.14074074074071,0)" xlink:href="#bi"/><use transform="matrix(0.0567901234567901,0,0,0.0567901234567901,94.49876543209874,0)" xlink:href="#be"/><use transform="matrix(0.0567901234567901,0,0,0.0567901234567901,105.85679012345676,0)" xlink:href="#aX"/><use transform="matrix(0.0567901234567901,0,0,0.0567901234567901,113.0691358024691,0)" xlink:href="#bd"/></g><g id="ai"><use transform="matrix(0.0567901234567901,0,0,0.0567901234567901,0,0)" xlink:href="#aX"/><use transform="matrix(0.0567901234567901,0,0,0.0567901234567901,7.212345679012342,0)" xlink:href="#bc"/><use transform="matrix(0.0567901234567901,0,0,0.0567901234567901,18.570370370370362,0)" xlink:href="#ba"/><use transform="matrix(0.0567901234567901,0,0,0.0567901234567901,29.92839506172838,0)" xlink:href="#aZ"/><use transform="matrix(0.0567901234567901,0,0,0.0567901234567901,40.150617283950595,0)" xlink:href="#aV"/><use transform="matrix(0.0567901234567901,0,0,0.0567901234567901,45.82962962962961,0)" xlink:href="#bk"/><use transform="matrix(0.0567901234567901,0,0,0.0567901234567901,50.316049382716024,0)" xlink:href="#be"/><use transform="matrix(0.0567901234567901,0,0,0.0567901234567901,61.67407407407404,0)" xlink:href="#aT"/><use transform="matrix(0.0567901234567901,0,0,0.0567901234567901,73.03209876543207,0)" xlink:href="#aV"/><use transform="matrix(0.0567901234567901,0,0,0.0567901234567901,78.71111111111108,0)" xlink:href="#bk"/><use transform="matrix(0.0567901234567901,0,0,0.0567901234567901,83.1975308641975,0)" xlink:href="#bi"/><use transform="matrix(0.0567901234567901,0,0,0.0567901234567901,94.55555555555553,0)" xlink:href="#be"/><use transform="matrix(0.0567901234567901,0,0,0.0567901234567901,105.91358024691355,0)" xlink:href="#aX"/><use transform="matrix(0.0567901234567901,0,0,0.0567901234567901,113.1259259259259,0)" xlink:href="#bd"/></g><g id="aj"><use transform="matrix(0.0567901234567901,0,0,0.0567901234567901,0,0)" xlink:href="#aZ"/><use transform="matrix(0.0567901234567901,0,0,0.0567901234567901,10.222222222222218,0)" xlink:href="#aV"/><use transform="matrix(0.0567901234567901,0,0,0.0567901234567901,15.901234567901227,0)" xlink:href="#aU"/><use transform="matrix(0.0567901234567901,0,0,0.0567901234567901,22.659259259259247,0)" xlink:href="#bk"/><use transform="matrix(0.0567901234567901,0,0,0.0567901234567901,27.145679012345667,0)" xlink:href="#be"/><use transform="matrix(0.0567901234567901,0,0,0.0567901234567901,38.503703703703685,0)" xlink:href="#bn"/></g><g id="ak"><use transform="matrix(0.0567901234567901,0,0,0.0567901234567901,0,0)" xlink:href="#bw"/><use transform="matrix(0.0567901234567901,0,0,0.0567901234567901,6.814814814814811,0)" xlink:href="#bh"/></g><g id="al"><use transform="matrix(0.0567901234567901,0,0,0.0567901234567901,0,0)" xlink:href="#aX"/><use transform="matrix(0.0567901234567901,0,0,0.0567901234567901,7.212345679012342,0)" xlink:href="#bx"/><use transform="matrix(0.0567901234567901,0,0,0.0567901234567901,21.920987654320978,0)" xlink:href="#ba"/><use transform="matrix(0.0567901234567901,0,0,0.0567901234567901,33.279012345679,0)" xlink:href="#aT"/><use transform="matrix(0.0567901234567901,0,0,0.0567901234567901,44.63703703703702,0)" xlink:href="#aV"/><use transform="matrix(0.0567901234567901,0,0,0.0567901234567901,50.31604938271603,0)" xlink:href="#by"/><use transform="matrix(0.0567901234567901,0,0,0.0567901234567901,61.67407407407404,0)" xlink:href="#ba"/><use transform="matrix(0.0567901234567901,0,0,0.0567901234567901,73.03209876543207,0)" xlink:href="#aU"/><use transform="matrix(0.0567901234567901,0,0,0.0567901234567901,79.79012345679008,0)" xlink:href="#aZ"/><use transform="matrix(0.0567901234567901,0,0,0.0567901234567901,90.0123456790123,0)" xlink:href="#aX"/><use transform="matrix(0.0567901234567901,0,0,0.0567901234567901,97.22469135802464,0)" xlink:href="#bd"/></g><g id="an"><use transform="matrix(0.0567901234567901,0,0,0.0567901234567901,0,0)" xlink:href="#aX"/><use transform="matrix(0.0567901234567901,0,0,0.0567901234567901,7.212345679012342,0)" xlink:href="#bc"/><use transform="matrix(0.0567901234567901,0,0,0.0567901234567901,18.570370370370362,0)" xlink:href="#aT"/><use transform="matrix(0.0567901234567901,0,0,0.0567901234567901,29.92839506172838,0)" xlink:href="#aV"/><use transform="matrix(0.0567901234567901,0,0,0.0567901234567901,35.60740740740739,0)" xlink:href="#ba"/><use transform="matrix(0.0567901234567901,0,0,0.0567901234567901,46.96543209876541,0)" xlink:href="#bp"/><use transform="matrix(0.0567901234567901,0,0,0.0567901234567901,58.66419753086417,0)" xlink:href="#bk"/><use transform="matrix(0.0567901234567901,0,0,0.0567901234567901,63.15061728395059,0)" xlink:href="#bf"/><use transform="matrix(0.0567901234567901,0,0,0.0567901234567901,80.13086419753083,0)" xlink:href="#ba"/><use transform="matrix(0.0567901234567901,0,0,0.0567901234567901,91.48888888888885,0)" xlink:href="#aX"/><use transform="matrix(0.0567901234567901,0,0,0.0567901234567901,98.7012345679012,0)" xlink:href="#bd"/></g><g id="ao"><use transform="matrix(0.0567901234567901,0,0,0.0567901234567901,0,0)" xlink:href="#aX"/><use transform="matrix(0.0567901234567901,0,0,0.0567901234567901,7.212345679012342,0)" xlink:href="#bv"/><use transform="matrix(0.0567901234567901,0,0,0.0567901234567901,18.570370370370362,0)" xlink:href="#aU"/><use transform="matrix(0.0567901234567901,0,0,0.0567901234567901,25.328395061728383,0)" xlink:href="#ba"/><use transform="matrix(0.0567901234567901,0,0,0.0567901234567901,36.686419753086405,0)" xlink:href="#bs"/><use transform="matrix(0.0567901234567901,0,0,0.0567901234567901,46.908641975308626,0)" xlink:href="#bk"/><use transform="matrix(0.0567901234567901,0,0,0.0567901234567901,51.39506172839504,0)" xlink:href="#bv"/><use transform="matrix(0.0567901234567901,0,0,0.0567901234567901,62.75308641975305,0)" xlink:href="#bk"/><use transform="matrix(0.0567901234567901,0,0,0.0567901234567901,67.23950617283948,0)" xlink:href="#aV"/><use transform="matrix(0.0567901234567901,0,0,0.0567901234567901,72.9185185185185,0)" xlink:href="#aT"/><use transform="matrix(0.0567901234567901,0,0,0.0567901234567901,84.27654320987652,0)" xlink:href="#aV"/><use transform="matrix(0.0567901234567901,0,0,0.0567901234567901,89.95555555555553,0)" xlink:href="#bk"/><use transform="matrix(0.0567901234567901,0,0,0.0567901234567901,94.44197530864196,0)" xlink:href="#bi"/><use transform="matrix(0.0567901234567901,0,0,0.0567901234567901,105.79999999999998,0)" xlink:href="#be"/><use transform="matrix(0.0567901234567901,0,0,0.0567901234567901,117.15802469135802,0)" xlink:href="#aX"/><use transform="matrix(0.0567901234567901,0,0,0.0567901234567901,124.37037037037037,0)" xlink:href="#bd"/></g><g id="ap"><use transform="matrix(0.0567901234567901,0,0,0.0567901234567901,0,0)" xlink:href="#aX"/><use transform="matrix(0.0567901234567901,0,0,0.0567901234567901,7.212345679012342,0)" xlink:href="#aV"/><use transform="matrix(0.0567901234567901,0,0,0.0567901234567901,12.891358024691353,0)" xlink:href="#ba"/><use transform="matrix(0.0567901234567901,0,0,0.0567901234567901,24.249382716049375,0)" xlink:href="#bf"/><use transform="matrix(0.0567901234567901,0,0,0.0567901234567901,41.22962962962961,0)" xlink:href="#bv"/><use transform="matrix(0.0567901234567901,0,0,0.0567901234567901,52.58765432098763,0)" xlink:href="#aX"/><use transform="matrix(0.0567901234567901,0,0,0.0567901234567901,59.79999999999997,0)" xlink:href="#bd"/></g><g id="aq"><use transform="matrix(0.0567901234567901,0,0,0.0567901234567901,0,0)" xlink:href="#aX"/><use transform="matrix(0.0567901234567901,0,0,0.0567901234567901,7.212345679012342,0)" xlink:href="#by"/><use transform="matrix(0.0567901234567901,0,0,0.0567901234567901,18.570370370370362,0)" xlink:href="#aY"/><use transform="matrix(0.0567901234567901,0,0,0.0567901234567901,29.92839506172838,0)" xlink:href="#bf"/><use transform="matrix(0.0567901234567901,0,0,0.0567901234567901,46.90864197530862,0)" xlink:href="#bk"/><use transform="matrix(0.0567901234567901,0,0,0.0567901234567901,51.395061728395035,0)" xlink:href="#bc"/><use transform="matrix(0.0567901234567901,0,0,0.0567901234567901,62.75308641975305,0)" xlink:href="#bk"/><use transform="matrix(0.0567901234567901,0,0,0.0567901234567901,67.23950617283947,0)" xlink:href="#aV"/><use transform="matrix(0.0567901234567901,0,0,0.0567901234567901,72.91851851851848,0)" xlink:href="#br"/><use transform="matrix(0.0567901234567901,0,0,0.0567901234567901,83.1407407407407,0)" xlink:href="#aX"/><use transform="matrix(0.0567901234567901,0,0,0.0567901234567901,90.35308641975304,0)" xlink:href="#bd"/></g><g id="ar"><use transform="matrix(0.0567901234567901,0,0,0.0567901234567901,0,0)" xlink:href="#aX"/><use transform="matrix(0.0567901234567901,0,0,0.0567901234567901,7.212345679012342,0)" xlink:href="#bx"/><use transform="matrix(0.0567901234567901,0,0,0.0567901234567901,21.920987654320978,0)" xlink:href="#ba"/><use transform="matrix(0.0567901234567901,0,0,0.0567901234567901,33.279012345679,0)" xlink:href="#aT"/><use transform="matrix(0.0567901234567901,0,0,0.0567901234567901,44.63703703703702,0)" xlink:href="#aV"/><use transform="matrix(0.0567901234567901,0,0,0.0567901234567901,50.31604938271603,0)" xlink:href="#by"/><use transform="matrix(0.0567901234567901,0,0,0.0567901234567901,61.67407407407404,0)" xlink:href="#ba"/><use transform="matrix(0.0567901234567901,0,0,0.0567901234567901,73.03209876543207,0)" xlink:href="#aU"/><use transform="matrix(0.0567901234567901,0,0,0.0567901234567901,79.79012345679008,0)" xlink:href="#aX"/><use transform="matrix(0.0567901234567901,0,0,0.0567901234567901,87.00246913580243,0)" xlink:href="#bd"/></g><use transform="matrix(0.0567901234567901,0,0,0.0567901234567901,0,0)" xlink:href="#bw" id="at"/><use transform="matrix(0.0567901234567901,0,0,0.0567901234567901,0,0)" xlink:href="#bz" id="au"/><g id="av"><use transform="matrix(0.0567901234567901,0,0,0.0567901234567901,0,0)" xlink:href="#bz"/><use transform="matrix(0.0567901234567901,0,0,0.0567901234567901,5.67901234567901,0)" xlink:href="#bh"/></g><g id="aw"><use transform="matrix(0.0567901234567901,0,0,0.0567901234567901,0,0)" xlink:href="#aX"/><use transform="matrix(0.0567901234567901,0,0,0.0567901234567901,7.212345679012342,0)" xlink:href="#bv"/><use transform="matrix(0.0567901234567901,0,0,0.0567901234567901,18.570370370370362,0)" xlink:href="#aT"/><use transform="matrix(0.0567901234567901,0,0,0.0567901234567901,29.92839506172838,0)" xlink:href="#br"/><use transform="matrix(0.0567901234567901,0,0,0.0567901234567901,40.150617283950595,0)" xlink:href="#bf"/><use transform="matrix(0.0567901234567901,0,0,0.0567901234567901,57.13086419753083,0)" xlink:href="#ba"/><use transform="matrix(0.0567901234567901,0,0,0.0567901234567901,68.48888888888885,0)" xlink:href="#be"/><use transform="matrix(0.0567901234567901,0,0,0.0567901234567901,79.84691358024688,0)" xlink:href="#aV"/><use transform="matrix(0.0567901234567901,0,0,0.0567901234567901,85.52592592592589,0)" xlink:href="#bu"/><use transform="matrix(0.0567901234567901,0,0,0.0567901234567901,100.23456790123453,0)" xlink:href="#ba"/><use transform="matrix(0.0567901234567901,0,0,0.0567901234567901,111.59259259259255,0)" xlink:href="#aV"/><use transform="matrix(0.0567901234567901,0,0,0.0567901234567901,117.27160493827158,0)" xlink:href="#aT"/><use transform="matrix(0.0567901234567901,0,0,0.0567901234567901,128.6296296296296,0)" xlink:href="#bk"/><use transform="matrix(0.0567901234567901,0,0,0.0567901234567901,133.116049382716,0)" xlink:href="#bj"/><use transform="matrix(0.0567901234567901,0,0,0.0567901234567901,137.6024691358024,0)" xlink:href="#aZ"/><use transform="matrix(0.0567901234567901,0,0,0.0567901234567901,147.82469135802464,0)" xlink:href="#aX"/><use transform="matrix(0.0567901234567901,0,0,0.0567901234567901,155.03703703703698,0)" xlink:href="#bd"/></g><path d="M240 0l2-218c-23 76-54 145-80 218h-23L58-218 59 0H30v-248h44l77 211c21-75 51-140 76-211h43V0h-30" id="bC"/><g id="ax"><use transform="matrix(0.0567901234567901,0,0,0.0567901234567901,0,0)" xlink:href="#aX"/><use transform="matrix(0.0567901234567901,0,0,0.0567901234567901,7.212345679012342,0)" xlink:href="#bv"/><use transform="matrix(0.0567901234567901,0,0,0.0567901234567901,18.570370370370362,0)" xlink:href="#aT"/><use transform="matrix(0.0567901234567901,0,0,0.0567901234567901,29.92839506172838,0)" xlink:href="#br"/><use transform="matrix(0.0567901234567901,0,0,0.0567901234567901,40.150617283950595,0)" xlink:href="#bf"/><use transform="matrix(0.0567901234567901,0,0,0.0567901234567901,57.13086419753083,0)" xlink:href="#ba"/><use transform="matrix(0.0567901234567901,0,0,0.0567901234567901,68.48888888888885,0)" xlink:href="#be"/><use transform="matrix(0.0567901234567901,0,0,0.0567901234567901,79.84691358024688,0)" xlink:href="#aV"/><use transform="matrix(0.0567901234567901,0,0,0.0567901234567901,85.52592592592589,0)" xlink:href="#bC"/><use transform="matrix(0.0567901234567901,0,0,0.0567901234567901,102.50617283950612,0)" xlink:href="#ba"/><use transform="matrix(0.0567901234567901,0,0,0.0567901234567901,113.86419753086415,0)" xlink:href="#aV"/><use transform="matrix(0.0567901234567901,0,0,0.0567901234567901,119.54320987654316,0)" xlink:href="#by"/><use transform="matrix(0.0567901234567901,0,0,0.0567901234567901,130.90123456790118,0)" xlink:href="#bi"/><use transform="matrix(0.0567901234567901,0,0,0.0567901234567901,142.2592592592592,0)" xlink:href="#bc"/><use transform="matrix(0.0567901234567901,0,0,0.0567901234567901,153.61728395061724,0)" xlink:href="#aX"/><use transform="matrix(0.0567901234567901,0,0,0.0567901234567901,160.82962962962958,0)" xlink:href="#bd"/></g><path d="M233-177c-1 41-23 64-60 70L243 0h-38l-65-103H63V0H30v-248c88 3 205-21 203 71zM63-129c60-2 137 13 137-47 0-61-80-42-137-45v92" id="bD"/><path d="M30 0v-248h187v28H63v79h144v27H63v87h162V0H30" id="bE"/><path d="M-5 72V49h209v23H-5" id="bF"/><g id="ay"><use transform="matrix(0.0567901234567901,0,0,0.0567901234567901,0,0)" xlink:href="#aX"/><use transform="matrix(0.0567901234567901,0,0,0.0567901234567901,7.212345679012342,0)" xlink:href="#aS"/><use transform="matrix(0.0567901234567901,0,0,0.0567901234567901,21.920987654320978,0)" xlink:href="#bD"/><use transform="matrix(0.0567901234567901,0,0,0.0567901234567901,36.62962962962961,0)" xlink:href="#bE"/><use transform="matrix(0.0567901234567901,0,0,0.0567901234567901,50.25925925925924,0)" xlink:href="#bu"/><use transform="matrix(0.0567901234567901,0,0,0.0567901234567901,64.96790123456788,0)" xlink:href="#bb"/><use transform="matrix(0.0567901234567901,0,0,0.0567901234567901,70.64691358024689,0)" xlink:href="#bp"/><use transform="matrix(0.0567901234567901,0,0,0.0567901234567901,83.08395061728392,0)" xlink:href="#bF"/><use transform="matrix(0.0567901234567901,0,0,0.0567901234567901,94.44197530864194,0)" xlink:href="#aS"/><use transform="matrix(0.0567901234567901,0,0,0.0567901234567901,109.15061728395058,0)" xlink:href="#bm"/><use transform="matrix(0.0567901234567901,0,0,0.0567901234567901,122.78024691358019,0)" xlink:href="#bD"/><use transform="matrix(0.0567901234567901,0,0,0.0567901234567901,137.48888888888882,0)" xlink:href="#bu"/><use transform="matrix(0.0567901234567901,0,0,0.0567901234567901,152.19753086419746,0)" xlink:href="#aX"/><use transform="matrix(0.0567901234567901,0,0,0.0567901234567901,159.4098765432098,0)" xlink:href="#bh"/></g><path d="M30 0v-248h33v221h125V0H30" id="bG"/><g id="az"><use transform="matrix(0.0567901234567901,0,0,0.0567901234567901,0,0)" xlink:href="#aX"/><use transform="matrix(0.0567901234567901,0,0,0.0567901234567901,7.212345679012342,0)" xlink:href="#bs"/><use transform="matrix(0.0567901234567901,0,0,0.0567901234567901,17.43456790123456,0)" xlink:href="#aT"/><use transform="matrix(0.0567901234567901,0,0,0.0567901234567901,28.792592592592577,0)" xlink:href="#aU"/><use transform="matrix(0.0567901234567901,0,0,0.0567901234567901,35.5506172839506,0)" xlink:href="#bc"/><use transform="matrix(0.0567901234567901,0,0,0.0567901234567901,46.90864197530862,0)" xlink:href="#bG"/><use transform="matrix(0.0567901234567901,0,0,0.0567901234567901,58.26666666666664,0)" xlink:href="#aT"/><use transform="matrix(0.0567901234567901,0,0,0.0567901234567901,69.62469135802466,0)" xlink:href="#aZ"/><use transform="matrix(0.0567901234567901,0,0,0.0567901234567901,79.84691358024688,0)" xlink:href="#aV"/><use transform="matrix(0.0567901234567901,0,0,0.0567901234567901,85.52592592592589,0)" xlink:href="#bo"/><use transform="matrix(0.0567901234567901,0,0,0.0567901234567901,97.96296296296292,0)" xlink:href="#bi"/><use transform="matrix(0.0567901234567901,0,0,0.0567901234567901,109.32098765432094,0)" xlink:href="#aY"/><use transform="matrix(0.0567901234567901,0,0,0.0567901234567901,120.67901234567898,0)" xlink:href="#aU"/><use transform="matrix(0.0567901234567901,0,0,0.0567901234567901,127.43703703703697,0)" xlink:href="#bu"/><use transform="matrix(0.0567901234567901,0,0,0.0567901234567901,142.14567901234562,0)" xlink:href="#bk"/><use transform="matrix(0.0567901234567901,0,0,0.0567901234567901,146.63209876543203,0)" xlink:href="#bn"/><use transform="matrix(0.0567901234567901,0,0,0.0567901234567901,157.99012345679006,0)" xlink:href="#bk"/><use transform="matrix(0.0567901234567901,0,0,0.0567901234567901,162.47654320987647,0)" xlink:href="#aV"/><use transform="matrix(0.0567901234567901,0,0,0.0567901234567901,168.15555555555548,0)" xlink:href="#aZ"/><use transform="matrix(0.0567901234567901,0,0,0.0567901234567901,178.3777777777777,0)" xlink:href="#aX"/><use transform="matrix(0.0567901234567901,0,0,0.0567901234567901,185.59012345679005,0)" xlink:href="#bd"/></g><path d="M54-142c48-35 137-8 131 61C196 18 31 33 14-55l32-4c7 23 22 37 52 37 35-1 51-22 54-58 4-55-73-65-99-34H22l8-134h141v27H59" id="bH"/><path d="M110-160c48 1 74 30 74 79 0 53-28 85-80 85-65 0-83-55-86-122-5-90 50-162 133-122 14 7 22 21 27 39l-31 6c-5-40-67-38-82-6-9 19-15 44-15 74 11-20 30-34 60-33zm-7 138c34 0 49-23 49-58s-16-56-50-56c-29 0-50 16-49 49 1 36 15 65 50 65" id="bI"/><path d="M64 0c3-98 48-159 88-221H18v-27h164v26C143-157 98-101 97 0H64" id="bJ"/><path d="M134-131c28 9 52 24 51 62-1 50-34 73-85 73S17-19 16-69c0-36 21-54 49-61-75-25-45-126 34-121 46 3 78 18 79 63 0 33-17 51-44 57zm-34-11c31 1 46-15 46-44 0-28-17-43-47-42-29 0-46 13-45 42 1 28 16 44 46 44zm1 122c35 0 51-18 51-52 0-30-18-46-53-46-33 0-51 17-51 47 0 34 19 51 53 51" id="bK"/><g id="aA"><use transform="matrix(0.0567901234567901,0,0,0.0567901234567901,0,0)" xlink:href="#aX"/><use transform="matrix(0.0567901234567901,0,0,0.0567901234567901,7.212345679012342,0)" xlink:href="#bH"/><use transform="matrix(0.0567901234567901,0,0,0.0567901234567901,18.570370370370362,0)" xlink:href="#bI"/><use transform="matrix(0.0567901234567901,0,0,0.0567901234567901,29.92839506172838,0)" xlink:href="#bJ"/><use transform="matrix(0.0567901234567901,0,0,0.0567901234567901,41.2864197530864,0)" xlink:href="#bK"/><use transform="matrix(0.0567901234567901,0,0,0.0567901234567901,52.64444444444442,0)" xlink:href="#aX"/></g><use transform="matrix(0.0567901234567901,0,0,0.0567901234567901,0,0)" xlink:href="#bw" id="aB"/><path d="M30-248c87 1 191-15 191 75 0 78-77 80-158 76V0H30v-248zm33 125c57 0 124 11 124-50 0-59-68-47-124-48v98" id="bL"/><g id="aC"><use transform="matrix(0.07407407407407408,0,0,0.07407407407407408,0,0)" xlink:href="#bL"/><use transform="matrix(0.07407407407407408,0,0,0.07407407407407408,17.77777777777778,0)" xlink:href="#aT"/><use transform="matrix(0.07407407407407408,0,0,0.07407407407407408,32.592592592592595,0)" xlink:href="#br"/><use transform="matrix(0.07407407407407408,0,0,0.07407407407407408,45.92592592592593,0)" xlink:href="#bf"/><use transform="matrix(0.07407407407407408,0,0,0.07407407407407408,68.07407407407408,0)" xlink:href="#ba"/><use transform="matrix(0.07407407407407408,0,0,0.07407407407407408,82.88888888888889,0)" xlink:href="#be"/><use transform="matrix(0.07407407407407408,0,0,0.07407407407407408,97.7037037037037,0)" xlink:href="#aV"/></g><g id="aD"><use transform="matrix(0.05061728395061727,0,0,0.05061728395061727,0,0)" xlink:href="#aX"/><use transform="matrix(0.05061728395061727,0,0,0.05061728395061727,6.428395061728393,0)" xlink:href="#bk"/><use transform="matrix(0.05061728395061727,0,0,0.05061728395061727,10.427160493827158,0)" xlink:href="#bc"/><use transform="matrix(0.05061728395061727,0,0,0.05061728395061727,20.55061728395061,0)" xlink:href="#aX"/><use transform="matrix(0.05061728395061727,0,0,0.05061728395061727,26.979012345679,0)" xlink:href="#bd"/></g><g id="aE"><use transform="matrix(0.05061728395061727,0,0,0.05061728395061727,0,0)" xlink:href="#aX"/><use transform="matrix(0.05061728395061727,0,0,0.05061728395061727,6.428395061728393,0)" xlink:href="#bc"/><use transform="matrix(0.05061728395061727,0,0,0.05061728395061727,16.551851851851847,0)" xlink:href="#aT"/><use transform="matrix(0.05061728395061727,0,0,0.05061728395061727,26.675308641975295,0)" xlink:href="#aV"/><use transform="matrix(0.05061728395061727,0,0,0.05061728395061727,31.73703703703703,0)" xlink:href="#ba"/><use transform="matrix(0.05061728395061727,0,0,0.05061728395061727,41.86049382716048,0)" xlink:href="#aX"/><use transform="matrix(0.05061728395061727,0,0,0.05061728395061727,48.28888888888888,0)" xlink:href="#bd"/></g><g id="aF"><use transform="matrix(0.05061728395061727,0,0,0.05061728395061727,0,0)" xlink:href="#aX"/><use transform="matrix(0.05061728395061727,0,0,0.05061728395061727,6.428395061728393,0)" xlink:href="#aV"/><use transform="matrix(0.05061728395061727,0,0,0.05061728395061727,11.49012345679012,0)" xlink:href="#br"/><use transform="matrix(0.05061728395061727,0,0,0.05061728395061727,20.60123456790123,0)" xlink:href="#bv"/><use transform="matrix(0.05061728395061727,0,0,0.05061728395061727,30.724691358024685,0)" xlink:href="#ba"/><use transform="matrix(0.05061728395061727,0,0,0.05061728395061727,40.84814814814814,0)" xlink:href="#aX"/><use transform="matrix(0.05061728395061727,0,0,0.05061728395061727,47.276543209876536,0)" xlink:href="#bd"/></g><path d="M101-234c-31-9-42 10-38 44h38v23H63V0H32v-167H5v-23h27c-7-52 17-82 69-68v24" id="bM"/><g id="aG"><use transform="matrix(0.05061728395061727,0,0,0.05061728395061727,0,0)" xlink:href="#aX"/><use transform="matrix(0.05061728395061727,0,0,0.05061728395061727,6.428395061728393,0)" xlink:href="#bk"/><use transform="matrix(0.05061728395061727,0,0,0.05061728395061727,10.427160493827158,0)" xlink:href="#be"/><use transform="matrix(0.05061728395061727,0,0,0.05061728395061727,20.55061728395061,0)" xlink:href="#bM"/><use transform="matrix(0.05061728395061727,0,0,0.05061728395061727,25.61234567901234,0)" xlink:href="#bi"/><use transform="matrix(0.05061728395061727,0,0,0.05061728395061727,35.73580246913579,0)" xlink:href="#aX"/><use transform="matrix(0.05061728395061727,0,0,0.05061728395061727,42.164197530864186,0)" xlink:href="#bd"/></g><g id="aH"><use transform="matrix(0.05061728395061727,0,0,0.05061728395061727,0,0)" xlink:href="#aX"/><use transform="matrix(0.05061728395061727,0,0,0.05061728395061727,6.428395061728393,0)" xlink:href="#be"/><use transform="matrix(0.05061728395061727,0,0,0.05061728395061727,16.551851851851847,0)" xlink:href="#aY"/><use transform="matrix(0.05061728395061727,0,0,0.05061728395061727,26.675308641975295,0)" xlink:href="#bf"/><use transform="matrix(0.05061728395061727,0,0,0.05061728395061727,41.80987654320987,0)" xlink:href="#bg"/><use transform="matrix(0.05061728395061727,0,0,0.05061728395061727,51.93333333333332,0)" xlink:href="#ba"/><use transform="matrix(0.05061728395061727,0,0,0.05061728395061727,62.05679012345677,0)" xlink:href="#aU"/><use transform="matrix(0.05061728395061727,0,0,0.05061728395061727,68.08024691358024,0)" xlink:href="#aX"/><use transform="matrix(0.05061728395061727,0,0,0.05061728395061727,74.50864197530863,0)" xlink:href="#bd"/></g><g id="aI"><use transform="matrix(0.05061728395061727,0,0,0.05061728395061727,0,0)" xlink:href="#aX"/><use transform="matrix(0.05061728395061727,0,0,0.05061728395061727,6.428395061728393,0)" xlink:href="#bs"/><use transform="matrix(0.05061728395061727,0,0,0.05061728395061727,15.539506172839502,0)" xlink:href="#bt"/><use transform="matrix(0.05061728395061727,0,0,0.05061728395061727,24.65061728395061,0)" xlink:href="#bt"/><use transform="matrix(0.05061728395061727,0,0,0.05061728395061727,33.761728395061716,0)" xlink:href="#aX"/><use transform="matrix(0.05061728395061727,0,0,0.05061728395061727,40.19012345679011,0)" xlink:href="#bd"/></g><path d="M141 0L90-78 38 0H4l68-98-65-92h35l48 74 47-74h35l-64 92 68 98h-35" id="bN"/><g id="aJ"><use transform="matrix(0.05061728395061727,0,0,0.05061728395061727,0,0)" xlink:href="#aX"/><use transform="matrix(0.05061728395061727,0,0,0.05061728395061727,6.428395061728393,0)" xlink:href="#ba"/><use transform="matrix(0.05061728395061727,0,0,0.05061728395061727,16.551851851851847,0)" xlink:href="#bN"/><use transform="matrix(0.05061728395061727,0,0,0.05061728395061727,25.662962962962958,0)" xlink:href="#bv"/><use transform="matrix(0.05061728395061727,0,0,0.05061728395061727,35.78641975308641,0)" xlink:href="#bk"/><use transform="matrix(0.05061728395061727,0,0,0.05061728395061727,39.78518518518518,0)" xlink:href="#aU"/><use transform="matrix(0.05061728395061727,0,0,0.05061728395061727,45.80864197530863,0)" xlink:href="#br"/><use transform="matrix(0.05061728395061727,0,0,0.05061728395061727,54.91975308641974,0)" xlink:href="#bF"/><use transform="matrix(0.05061728395061727,0,0,0.05061728395061727,65.04320987654319,0)" xlink:href="#bc"/><use transform="matrix(0.05061728395061727,0,0,0.05061728395061727,75.16666666666664,0)" xlink:href="#aT"/><use transform="matrix(0.05061728395061727,0,0,0.05061728395061727,85.2901234567901,0)" xlink:href="#aV"/><use transform="matrix(0.05061728395061727,0,0,0.05061728395061727,90.35185185185182,0)" xlink:href="#ba"/><use transform="matrix(0.05061728395061727,0,0,0.05061728395061727,100.47530864197527,0)" xlink:href="#aX"/><use transform="matrix(0.05061728395061727,0,0,0.05061728395061727,106.90370370370368,0)" xlink:href="#bd"/></g></defs></g></svg>